<?xml version="1.0" encoding="UTF-8" standalone="no"?>
<!-- Created with Inkscape (http://www.inkscape.org/) -->

<svg
   width="244.08951"
   height="59.06818"
   viewBox="0 0 64.582017 15.628456"
   version="1.1"
   id="svg9820"
   inkscape:version="0.92.0 r15299"
   sodipodi:docname="Pearson_logo.svg"
   inkscape:export-filename="../Projects/salient-ts/src/images/logos/muzee.svg"
   inkscape:export-xdpi="96"
   inkscape:export-ydpi="96"
   xml:space="preserve"
   xmlns:inkscape="http://www.inkscape.org/namespaces/inkscape"
   xmlns:sodipodi="http://sodipodi.sourceforge.net/DTD/sodipodi-0.dtd"
   xmlns="http://www.w3.org/2000/svg"
   xmlns:svg="http://www.w3.org/2000/svg"
   xmlns:rdf="http://www.w3.org/1999/02/22-rdf-syntax-ns#"
   xmlns:cc="http://creativecommons.org/ns#"
   xmlns:dc="http://purl.org/dc/elements/1.1/"><defs
     id="defs9814"><clipPath
       id="clip0"><rect
         width="180"
         height="76"
         fill="#ffffff"
         id="rect17"
         x="0"
         y="0" /></clipPath></defs><sodipodi:namedview
     id="base"
     pagecolor="#ffffff"
     bordercolor="#666666"
     borderopacity="1.0"
     inkscape:pageopacity="0.0"
     inkscape:pageshadow="2"
     inkscape:zoom="4.6080994"
     inkscape:cx="97.32863"
     inkscape:cy="29.034089"
     inkscape:document-units="mm"
     inkscape:current-layer="layer1"
     showgrid="false"
     fit-margin-top="0"
     fit-margin-left="0"
     fit-margin-right="0"
     fit-margin-bottom="0"
     units="px"
     inkscape:window-width="1280"
     inkscape:window-height="744"
     inkscape:window-x="-4"
     inkscape:window-y="-4"
     inkscape:window-maximized="1"
     inkscape:showpageshadow="2"
     inkscape:pagecheckerboard="0"
     inkscape:deskcolor="#d1d1d1"><inkscape:page
       x="0"
       y="0"
       width="64.582016"
       height="15.628456"
       id="page2"
       margin="0"
       bleed="0" /></sodipodi:namedview><metadata
     id="metadata9817"><rdf:RDF><cc:Work
         rdf:about=""><dc:format>image/svg+xml</dc:format><dc:type
           rdf:resource="http://purl.org/dc/dcmitype/StillImage" /></cc:Work></rdf:RDF></metadata><g
     inkscape:label="pearson"
     inkscape:groupmode="layer"
     id="layer1"
     transform="translate(-322.99526,-246.72015)"
     style="display:none"><g
       id="g37"
       transform="matrix(0.26458333,0,0,0.26458333,322.81316,246.8401)"
       inkscape:label="color"
       style="display:none"><path
         id="path35"
         d="m 121.73852,41.251305 c -0.0726,-0.187753 -0.27275,-0.296147 -0.46898,-0.251628 l -0.0608,0.01742 c -0.58081,0.123878 -1.0282,0.08904 -1.34216,-0.120008 -0.44542,-0.296146 -0.66127,-0.965864 -0.66127,-2.045929 v -9.76123 c 0,-3.813132 -2.30365,-5.746796 -6.85209,-5.746796 -4.07162,0 -7.2622,1.900759 -7.2622,4.328001 0,1.248462 0.77116,2.150452 1.90925,2.285944 0.74368,0.08904 1.45401,-0.243886 1.96811,-0.780047 1.00074,-1.041353 0.87319,-2.282072 -0.34142,-3.611829 0.71817,-0.741335 1.98969,-1.178781 3.43978,-1.178781 2.36252,0 3.3711,1.382018 3.3711,4.622213 v 2.46789 c -0.55335,0.168397 -1.07138,0.327116 -2.02109,0.547775 -1.91317,0.443252 -4.53863,1.03361 -6.51852,2.11174 -1.63453,0.884569 -2.46455,2.280136 -2.46455,4.14799 0,2.034316 1.35393,4.409297 5.1685,4.409297 2.13686,0 4.05003,-0.998769 6.01422,-3.143414 0.17072,2.227875 1.02625,3.064055 3.10228,3.064055 0.99877,0 1.7974,-0.230337 2.74712,-0.683267 0.25705,-0.123879 0.37871,-0.41809 0.27275,-0.679396 z m -6.30071,-2.982759 c -0.46309,0.636812 -1.97792,2.531764 -3.86558,2.531764 -2.54894,0 -3.08462,-1.765267 -3.08462,-3.246001 0,-2.434985 1.89158,-3.561504 6.9502,-4.794481 z m 48.88296,4.508012 c -5.40397,0 -9.47951,-4.177025 -9.47951,-9.716712 0,-5.423551 4.25214,-9.83672 9.47951,-9.83672 5.29212,0 9.44027,4.248642 9.44027,9.676065 0,6.101011 -4.89968,9.877367 -9.44027,9.877367 z M 164.1167,24.264479 c -2.33505,0 -5.01741,0.991027 -5.01741,8.714072 0,5.891966 1.76208,8.754719 5.38631,8.754719 3.46725,0 5.01545,-2.698227 5.01545,-8.754719 0,-5.862933 -1.76208,-8.714072 -5.38435,-8.714072 z M 80.775096,23.571534 c 0,4.494464 -1.122393,6.968161 -6.863865,6.968161 H 70.86782 V 16.963396 h 3.167032 c 5.939656,0 6.740244,3.340846 6.740244,6.608138 z M 70.86782,38.851161 v -7.063004 h 2.756926 c 4.112825,0 7.240612,-0.857471 9.298987,-2.551121 2.152561,-1.771074 2.603873,-4.014435 2.603873,-5.584206 0,-6.457162 -6.316404,-7.812082 -11.616375,-7.812082 l 0.02159,-0.0019 H 63.185707 c -0.243316,0 -0.441501,0.197431 -0.441501,0.43551 v 0.02903 -0.0077 c 0,0.220658 0.135394,0.418089 0.347314,0.493578 0.957566,0.348408 3.557515,-0.139363 3.557515,2.611124 v 19.4469 c 0,1.414924 -0.635761,2.413693 -3.541817,2.684677 -0.231543,0.02129 -0.404219,0.207109 -0.404219,0.431639 v 0.06775 c 0,0.240014 0.196223,0.433574 0.439539,0.433574 h 11.482944 c 0.243315,0 0.4415,-0.19356 0.4415,-0.433574 v -0.06 c 0,-0.224529 -0.180524,-0.414218 -0.412067,-0.433574 -3.157221,-0.249692 -3.79102,-1.213621 -3.79102,-2.690484 V 31.801706 Z M 94.218303,23.213448 c -4.997788,0 -9.065482,4.463494 -9.065482,9.95092 0,5.555172 3.812604,9.587027 9.065482,9.587027 4.413045,0 6.561677,-2.601446 7.791997,-4.556402 0.12166,-0.19356 0.0687,-0.449059 -0.1197,-0.582616 l -0.0589,-0.04065 c -0.19034,-0.133557 -0.45524,-0.09484 -0.6024,0.0871 -1.622766,2.007217 -3.043417,3.168577 -5.496199,3.168577 -3.102278,0 -6.416477,-2.107869 -6.416477,-8.026934 v -0.04258 c -0.0059,-0.261306 0,-0.619392 0.0098,-0.954251 h 12.693636 c 0.0353,0 0.0628,-0.0271 0.0648,-0.06194 l 0.008,-0.100651 c 0.18053,-2.425307 -0.51606,-4.606728 -1.96026,-6.137788 -1.410841,-1.498154 -3.45548,-2.289815 -5.914148,-2.289815 z m -4.821188,7.343667 c 0.417954,-4.049275 2.01913,-6.269409 4.534703,-6.269409 1.257787,0 2.191806,0.344537 2.851114,1.052967 0.906548,0.969735 1.291144,2.725325 1.140053,5.216442 z m 57.434335,0.216787 h -0.004 c -3.47118,-0.961993 -4.82315,-1.933664 -4.82315,-3.468595 0,-1.747847 1.40692,-3.017601 3.34559,-3.017601 2.28011,0 3.2573,1.076194 5.66495,5.04611 l 0.0314,0.05226 c 0.0118,0.02129 0.0334,0.0329 0.0334,0.0329 h 0.3532 c 0.24332,0 0.4415,-0.195495 0.4415,-0.43551 v -5.706149 c 0,-0.03484 -0.0294,-0.06387 -0.0294,-0.06387 h -0.4729 c -0.13147,0 -0.25705,0.05807 -0.33946,0.15872 l -0.76919,0.921345 c -0.96934,-0.526483 -2.54893,-1.080065 -4.13441,-1.080065 -3.98724,0 -6.77164,2.429178 -6.77164,5.909387 0,3.267293 2.19573,4.490592 5.98675,5.500976 3.68309,0.994898 4.98994,2.030444 4.98994,3.952495 0,2.138838 -2.09958,3.098896 -3.59088,3.098896 -2.77458,0 -3.94603,-1.01619 -6.60485,-5.727441 l -0.0314,-0.05613 c -0.0118,-0.02129 -0.0334,-0.03484 -0.0334,-0.03484 h -0.35713 c -0.24331,0 -0.4415,0.197431 -0.4415,0.43551 v 6.393287 c 0,0.03678 0.0294,0.06581 0.0667,0.06581 h 0.45131 c 0.11577,0 0.22958,-0.04645 0.312,-0.127749 l 1.21461,-1.198137 c 1.42262,0.87102 3.54967,1.325886 4.93108,1.325886 2.07407,0 3.77924,-0.648426 4.93107,-1.873661 1.0282,-1.093614 1.59333,-2.642094 1.59333,-4.360907 0,-2.976952 -1.61099,-4.533175 -5.94359,-5.742925 z m -21.00562,9.397338 c 0,0.985221 -0.25313,1.308466 -1.84449,1.407182 -0.23154,0.01548 -0.41207,0.205173 -0.41207,0.433574 0,0.240014 0.19819,0.433574 0.4415,0.433574 h 7.85479 c 0.23939,0 0.43365,-0.191624 0.43365,-0.425832 0,-0.232272 -0.18248,-0.423896 -0.41795,-0.433574 -1.81702,-0.0871 -2.28796,-0.377442 -2.28796,-1.414924 V 28.809268 c 1.29311,-2.121418 2.22124,-3.232452 3.79102,-3.567311 -0.0765,0.269049 -0.12558,0.588423 -0.12558,0.849729 0,1.380082 0.97719,2.344011 2.37626,2.344011 1.37355,0 2.33504,-0.963929 2.33504,-2.344011 0,-1.304595 -0.82609,-2.829848 -3.15722,-2.829848 -1.90924,0 -3.73411,1.080065 -5.30193,3.664091 v -2.922756 c 0,-0.298082 -0.2492,-0.538097 -0.55139,-0.530354 l -4.94873,0.131621 c -0.24135,0.0077 -0.42776,0.197431 -0.42776,0.433574 v 0.06194 c 0,0.214852 0.15698,0.398734 0.36693,0.427768 1.65023,0.230336 1.87785,1.004576 1.87589,1.80785 z m 54.32814,-16.710035 c 0.11381,0 0.22369,0.04452 0.30414,0.123879 0.0883,0.0813 0.1354,0.189688 0.13736,0.309696 l 0.0157,3.240194 c 0,0 1.61295,-3.801518 6.84424,-3.801518 h 0.0471 c 3.26122,0 5.13122,2.051736 5.13122,5.628725 V 40.15382 c 0,0.98522 0.25509,1.308466 1.84449,1.407181 0.23155,0.01355 0.41207,0.203238 0.41207,0.433575 0,0.238078 -0.19818,0.433574 -0.43954,0.433574 h -7.05812 c -0.24332,0 -0.4415,-0.195496 -0.4415,-0.43551 0,-0.232272 0.17856,-0.421961 0.40225,-0.441317 1.2833,-0.108393 1.48737,-0.427767 1.48737,-1.397503 V 30.053859 c 0,-3.336975 -0.96149,-4.633826 -3.42801,-4.633826 -1.66789,0 -3.03164,1.434279 -3.88324,2.638222 0,0 -0.43562,0.538097 -0.90655,1.552352 l 0.051,10.541277 c 0,0.969736 0.20014,1.28911 1.44616,1.397504 0.22369,0.01936 0.40029,0.21098 0.40029,0.433574 0,0.249692 -0.19818,0.445188 -0.43954,0.445188 h -7.01495 c -0.24136,0 -0.43954,-0.195496 -0.43954,-0.43551 0,-0.228401 0.18249,-0.41809 0.41207,-0.433574 1.5894,-0.09872 1.84253,-0.420026 1.84253,-1.405246 V 26.337507 c 0,-0.80521 -0.22762,-1.583321 -1.8857,-1.815593 -0.20996,-0.02903 -0.3689,-0.214852 -0.3689,-0.429703 v -0.06387 c 0,-0.238079 0.18837,-0.427767 0.42973,-0.43551 z"
         inkscape:connector-curvature="0"
         style="fill:#3d3935" /><path
         id="path36"
         d="M 42.276232,3.7858309 C 54.714779,10.777218 57.611024,26.451707 48.955648,42.312014 41.350062,56.252206 24.741785,62.206111 12.366029,55.110202 -0.0116891,48.010421 -2.4271887,28.207297 2.8924046,16.812419 10.615724,0.2630388 28.532805,-3.9410845 42.276232,3.7858309"
         inkscape:connector-curvature="0"
         style="fill:#007fa3;fill-opacity:1" /><path
         id="path37"
         d="m 41.987785,15.811714 c 2.435122,2.56467 3.192541,6.455226 2.770662,9.647031 -0.484669,3.638928 -2.721606,7.006872 -6.440024,9.238619 -2.949224,1.773009 -6.82462,2.477567 -10.637224,2.512408 -0.0314,0.596165 -0.151091,2.649837 -0.21192,2.975018 -0.0883,0.478093 -0.259014,0.737463 -0.46701,1.004576 -0.410105,0.528419 -1.120431,0.867149 -1.826832,1.066516 -0.559234,0.154848 -1.114544,0.224529 -1.508951,0.224529 -0.06475,0 -0.129507,-0.0058 -0.194261,-0.01161 -0.414029,-0.04646 -0.875152,-0.240015 -1.159675,-0.551646 -0.284523,-0.315503 -0.445425,-0.710366 -0.482707,-1.159425 l -0.0314,-0.406476 c -0.08045,-0.348408 -0.521952,-18.03205 -0.437576,-17.716547 0.06475,-2.119482 3.532006,-2.487246 5.41378,-2.113675 1.885699,0.373571 1.408878,2.634351 1.35786,5.411937 0,0 -0.09026,3.652478 -0.2649,7.512064 2.401764,-0.09097 4.309047,-0.766497 6.09271,-1.639453 3.604608,-1.765267 5.511891,-4.469301 5.511891,-8.45083 0,-3.981529 -3.928375,-8.441151 -11.178799,-8.441151 -7.250423,0 -10.362512,1.803979 -13.872934,4.668667 -0.790777,0.64649 -1.401029,1.296852 -1.975961,1.724619 -0.576894,0.427768 -2.109392,0.493578 -2.517535,-0.509062 -0.4964431,-1.207815 0.427765,-2.554992 0.971302,-3.20729 0.853568,-1.023932 2.955111,-3.085346 5.286235,-4.283483 2.670589,-1.374276 5.935732,-2.85501 10.482209,-2.96921 4.112824,-0.100651 10.60779,0.226465 15.285736,5.439036 M 26.26251,45.0896 c -0.378709,-0.29034 -0.80255,-0.489707 -1.232278,-0.572937 -0.145204,-0.02904 -0.296296,-0.04452 -0.443463,-0.04452 -0.808436,0 -1.603138,0.439381 -2.121165,1.176845 -0.43169,0.611649 -0.610252,1.345241 -0.496443,2.053671 0.07456,0.454866 0.245278,0.847793 0.500367,1.140069 0.284523,0.329052 0.720137,0.582615 1.261711,0.735528 0.311994,0.08517 0.631837,0.13162 0.95168,0.13162 h 0.002 c 0.698552,0 1.326464,-0.209044 1.815058,-0.596164 0.567083,-0.458738 0.875153,-1.107164 0.869266,-1.833014 -0.0078,-0.841986 -0.419916,-1.664616 -1.106695,-2.191099"
         inkscape:connector-curvature="0"
         style="fill:#ffffff" /><title
         id="title37">Logo Muzee Scheveningen</title></g><g
       id="g9840"
       transform="matrix(0.26458333,0,0,0.26458333,322.81316,246.8401)"
       inkscape:label="black"
       style="display:inline"><path
         id="wordmark"
         d="m 121.73852,41.251305 c -0.0726,-0.187753 -0.27275,-0.296147 -0.46898,-0.251628 l -0.0608,0.01742 c -0.58081,0.123878 -1.0282,0.08904 -1.34216,-0.120008 -0.44542,-0.296146 -0.66127,-0.965864 -0.66127,-2.045929 v -9.76123 c 0,-3.813132 -2.30365,-5.746796 -6.85209,-5.746796 -4.07162,0 -7.2622,1.900759 -7.2622,4.328001 0,1.248462 0.77116,2.150452 1.90925,2.285944 0.74368,0.08904 1.45401,-0.243886 1.96811,-0.780047 1.00074,-1.041353 0.87319,-2.282072 -0.34142,-3.611829 0.71817,-0.741335 1.98969,-1.178781 3.43978,-1.178781 2.36252,0 3.3711,1.382018 3.3711,4.622213 v 2.46789 c -0.55335,0.168397 -1.07138,0.327116 -2.02109,0.547775 -1.91317,0.443252 -4.53863,1.03361 -6.51852,2.11174 -1.63453,0.884569 -2.46455,2.280136 -2.46455,4.14799 0,2.034316 1.35393,4.409297 5.1685,4.409297 2.13686,0 4.05003,-0.998769 6.01422,-3.143414 0.17072,2.227875 1.02625,3.064055 3.10228,3.064055 0.99877,0 1.7974,-0.230337 2.74712,-0.683267 0.25705,-0.123879 0.37871,-0.41809 0.27275,-0.679396 z m -6.30071,-2.982759 c -0.46309,0.636812 -1.97792,2.531764 -3.86558,2.531764 -2.54894,0 -3.08462,-1.765267 -3.08462,-3.246001 0,-2.434985 1.89158,-3.561504 6.9502,-4.794481 z m 48.88296,4.508012 c -5.40397,0 -9.47951,-4.177025 -9.47951,-9.716712 0,-5.423551 4.25214,-9.83672 9.47951,-9.83672 5.29212,0 9.44027,4.248642 9.44027,9.676065 0,6.101011 -4.89968,9.877367 -9.44027,9.877367 z M 164.1167,24.264479 c -2.33505,0 -5.01741,0.991027 -5.01741,8.714072 0,5.891966 1.76208,8.754719 5.38631,8.754719 3.46725,0 5.01545,-2.698227 5.01545,-8.754719 0,-5.862933 -1.76208,-8.714072 -5.38435,-8.714072 z M 80.775096,23.571534 c 0,4.494464 -1.122393,6.968161 -6.863865,6.968161 H 70.86782 V 16.963396 h 3.167032 c 5.939656,0 6.740244,3.340846 6.740244,6.608138 z M 70.86782,38.851161 v -7.063004 h 2.756926 c 4.112825,0 7.240612,-0.857471 9.298987,-2.551121 2.152561,-1.771074 2.603873,-4.014435 2.603873,-5.584206 0,-6.457162 -6.316404,-7.812082 -11.616375,-7.812082 l 0.02159,-0.0019 H 63.185707 c -0.243316,0 -0.441501,0.197431 -0.441501,0.43551 v 0.02903 -0.0077 c 0,0.220658 0.135394,0.418089 0.347314,0.493578 0.957566,0.348408 3.557515,-0.139363 3.557515,2.611124 v 19.4469 c 0,1.414924 -0.635761,2.413693 -3.541817,2.684677 -0.231543,0.02129 -0.404219,0.207109 -0.404219,0.431639 v 0.06775 c 0,0.240014 0.196223,0.433574 0.439539,0.433574 h 11.482944 c 0.243315,0 0.4415,-0.19356 0.4415,-0.433574 v -0.06 c 0,-0.224529 -0.180524,-0.414218 -0.412067,-0.433574 -3.157221,-0.249692 -3.79102,-1.213621 -3.79102,-2.690484 V 31.801706 Z M 94.218303,23.213448 c -4.997788,0 -9.065482,4.463494 -9.065482,9.95092 0,5.555172 3.812604,9.587027 9.065482,9.587027 4.413045,0 6.561677,-2.601446 7.791997,-4.556402 0.12166,-0.19356 0.0687,-0.449059 -0.1197,-0.582616 l -0.0589,-0.04065 c -0.19034,-0.133557 -0.45524,-0.09484 -0.6024,0.0871 -1.622766,2.007217 -3.043417,3.168577 -5.496199,3.168577 -3.102278,0 -6.416477,-2.107869 -6.416477,-8.026934 v -0.04258 c -0.0059,-0.261306 0,-0.619392 0.0098,-0.954251 h 12.693636 c 0.0353,0 0.0628,-0.0271 0.0648,-0.06194 l 0.008,-0.100651 c 0.18053,-2.425307 -0.51606,-4.606728 -1.96026,-6.137788 -1.410841,-1.498154 -3.45548,-2.289815 -5.914148,-2.289815 z m -4.821188,7.343667 c 0.417954,-4.049275 2.01913,-6.269409 4.534703,-6.269409 1.257787,0 2.191806,0.344537 2.851114,1.052967 0.906548,0.969735 1.291144,2.725325 1.140053,5.216442 z m 57.434335,0.216787 h -0.004 c -3.47118,-0.961993 -4.82315,-1.933664 -4.82315,-3.468595 0,-1.747847 1.40692,-3.017601 3.34559,-3.017601 2.28011,0 3.2573,1.076194 5.66495,5.04611 l 0.0314,0.05226 c 0.0118,0.02129 0.0334,0.0329 0.0334,0.0329 h 0.3532 c 0.24332,0 0.4415,-0.195495 0.4415,-0.43551 v -5.706149 c 0,-0.03484 -0.0294,-0.06387 -0.0294,-0.06387 h -0.4729 c -0.13147,0 -0.25705,0.05807 -0.33946,0.15872 l -0.76919,0.921345 c -0.96934,-0.526483 -2.54893,-1.080065 -4.13441,-1.080065 -3.98724,0 -6.77164,2.429178 -6.77164,5.909387 0,3.267293 2.19573,4.490592 5.98675,5.500976 3.68309,0.994898 4.98994,2.030444 4.98994,3.952495 0,2.138838 -2.09958,3.098896 -3.59088,3.098896 -2.77458,0 -3.94603,-1.01619 -6.60485,-5.727441 l -0.0314,-0.05613 c -0.0118,-0.02129 -0.0334,-0.03484 -0.0334,-0.03484 h -0.35713 c -0.24331,0 -0.4415,0.197431 -0.4415,0.43551 v 6.393287 c 0,0.03678 0.0294,0.06581 0.0667,0.06581 h 0.45131 c 0.11577,0 0.22958,-0.04645 0.312,-0.127749 l 1.21461,-1.198137 c 1.42262,0.87102 3.54967,1.325886 4.93108,1.325886 2.07407,0 3.77924,-0.648426 4.93107,-1.873661 1.0282,-1.093614 1.59333,-2.642094 1.59333,-4.360907 0,-2.976952 -1.61099,-4.533175 -5.94359,-5.742925 z m -21.00562,9.397338 c 0,0.985221 -0.25313,1.308466 -1.84449,1.407182 -0.23154,0.01548 -0.41207,0.205173 -0.41207,0.433574 0,0.240014 0.19819,0.433574 0.4415,0.433574 h 7.85479 c 0.23939,0 0.43365,-0.191624 0.43365,-0.425832 0,-0.232272 -0.18248,-0.423896 -0.41795,-0.433574 -1.81702,-0.0871 -2.28796,-0.377442 -2.28796,-1.414924 V 28.809268 c 1.29311,-2.121418 2.22124,-3.232452 3.79102,-3.567311 -0.0765,0.269049 -0.12558,0.588423 -0.12558,0.849729 0,1.380082 0.97719,2.344011 2.37626,2.344011 1.37355,0 2.33504,-0.963929 2.33504,-2.344011 0,-1.304595 -0.82609,-2.829848 -3.15722,-2.829848 -1.90924,0 -3.73411,1.080065 -5.30193,3.664091 v -2.922756 c 0,-0.298082 -0.2492,-0.538097 -0.55139,-0.530354 l -4.94873,0.131621 c -0.24135,0.0077 -0.42776,0.197431 -0.42776,0.433574 v 0.06194 c 0,0.214852 0.15698,0.398734 0.36693,0.427768 1.65023,0.230336 1.87785,1.004576 1.87589,1.80785 z m 54.32814,-16.710035 c 0.11381,0 0.22369,0.04452 0.30414,0.123879 0.0883,0.0813 0.1354,0.189688 0.13736,0.309696 l 0.0157,3.240194 c 0,0 1.61295,-3.801518 6.84424,-3.801518 h 0.0471 c 3.26122,0 5.13122,2.051736 5.13122,5.628725 V 40.15382 c 0,0.98522 0.25509,1.308466 1.84449,1.407181 0.23155,0.01355 0.41207,0.203238 0.41207,0.433575 0,0.238078 -0.19818,0.433574 -0.43954,0.433574 h -7.05812 c -0.24332,0 -0.4415,-0.195496 -0.4415,-0.43551 0,-0.232272 0.17856,-0.421961 0.40225,-0.441317 1.2833,-0.108393 1.48737,-0.427767 1.48737,-1.397503 V 30.053859 c 0,-3.336975 -0.96149,-4.633826 -3.42801,-4.633826 -1.66789,0 -3.03164,1.434279 -3.88324,2.638222 0,0 -0.43562,0.538097 -0.90655,1.552352 l 0.051,10.541277 c 0,0.969736 0.20014,1.28911 1.44616,1.397504 0.22369,0.01936 0.40029,0.21098 0.40029,0.433574 0,0.249692 -0.19818,0.445188 -0.43954,0.445188 h -7.01495 c -0.24136,0 -0.43954,-0.195496 -0.43954,-0.43551 0,-0.228401 0.18249,-0.41809 0.41207,-0.433574 1.5894,-0.09872 1.84253,-0.420026 1.84253,-1.405246 V 26.337507 c 0,-0.80521 -0.22762,-1.583321 -1.8857,-1.815593 -0.20996,-0.02903 -0.3689,-0.214852 -0.3689,-0.429703 v -0.06387 c 0,-0.238079 0.18837,-0.427767 0.42973,-0.43551 z"
         inkscape:connector-curvature="0"
         style="fill:#000000" /><path
         id="thumbprint"
         d="M 42.276232,3.7858309 C 54.714779,10.777218 57.611024,26.451707 48.955648,42.312014 41.350062,56.252206 24.741785,62.206111 12.366029,55.110202 -0.0116891,48.010421 -2.4271887,28.207297 2.8924046,16.812419 10.615724,0.2630388 28.532805,-3.9410845 42.276232,3.7858309"
         inkscape:connector-curvature="0"
         style="fill:#000000;fill-opacity:1" /><path
         id="interrobang"
         d="m 41.987785,15.811714 c 2.435122,2.56467 3.192541,6.455226 2.770662,9.647031 -0.484669,3.638928 -2.721606,7.006872 -6.440024,9.238619 -2.949224,1.773009 -6.82462,2.477567 -10.637224,2.512408 -0.0314,0.596165 -0.151091,2.649837 -0.21192,2.975018 -0.0883,0.478093 -0.259014,0.737463 -0.46701,1.004576 -0.410105,0.528419 -1.120431,0.867149 -1.826832,1.066516 -0.559234,0.154848 -1.114544,0.224529 -1.508951,0.224529 -0.06475,0 -0.129507,-0.0058 -0.194261,-0.01161 -0.414029,-0.04646 -0.875152,-0.240015 -1.159675,-0.551646 -0.284523,-0.315503 -0.445425,-0.710366 -0.482707,-1.159425 l -0.0314,-0.406476 c -0.08045,-0.348408 -0.521952,-18.03205 -0.437576,-17.716547 0.06475,-2.119482 3.532006,-2.487246 5.41378,-2.113675 1.885699,0.373571 1.408878,2.634351 1.35786,5.411937 0,0 -0.09026,3.652478 -0.2649,7.512064 2.401764,-0.09097 4.309047,-0.766497 6.09271,-1.639453 3.604608,-1.765267 5.511891,-4.469301 5.511891,-8.45083 0,-3.981529 -3.928375,-8.441151 -11.178799,-8.441151 -7.250423,0 -10.362512,1.803979 -13.872934,4.668667 -0.790777,0.64649 -1.401029,1.296852 -1.975961,1.724619 -0.576894,0.427768 -2.109392,0.493578 -2.517535,-0.509062 -0.4964431,-1.207815 0.427765,-2.554992 0.971302,-3.20729 0.853568,-1.023932 2.955111,-3.085346 5.286235,-4.283483 2.670589,-1.374276 5.935732,-2.85501 10.482209,-2.96921 4.112824,-0.100651 10.60779,0.226465 15.285736,5.439036 M 26.26251,45.0896 c -0.378709,-0.29034 -0.80255,-0.489707 -1.232278,-0.572937 -0.145204,-0.02904 -0.296296,-0.04452 -0.443463,-0.04452 -0.808436,0 -1.603138,0.439381 -2.121165,1.176845 -0.43169,0.611649 -0.610252,1.345241 -0.496443,2.053671 0.07456,0.454866 0.245278,0.847793 0.500367,1.140069 0.284523,0.329052 0.720137,0.582615 1.261711,0.735528 0.311994,0.08517 0.631837,0.13162 0.95168,0.13162 h 0.002 c 0.698552,0 1.326464,-0.209044 1.815058,-0.596164 0.567083,-0.458738 0.875153,-1.107164 0.869266,-1.833014 -0.0078,-0.841986 -0.419916,-1.664616 -1.106695,-2.191099"
         inkscape:connector-curvature="0"
         style="fill:#ffffff" /><title
         id="title1">Logo Muzee Scheveningen</title></g></g><g
     clip-path="url(#clip0)"
     id="g17"
     transform="matrix(0.20563661,0,0,0.20563661,8.1875364,5.2676981e-5)"
     style="display:none"
     inkscape:label="muzee"><g
       id="g1"
       inkscape:label="color"
       style="display:none"><path
         class="muzee"
         d="M 0,45.6175 C 0,30.8203 0,16.1106 0,1.31336 0,0.35023 0.44226,0 1.50369,0 h 6.457 C 9.02211,0 9.28747,0.700461 9.55282,1.48848 13.0025,10.3318 16.4521,19.6129 19.9017,28.3687 c 0.1769,0.4378 0.7076,0.4378 0.8845,0.0875 C 24.2359,20.3134 27.6855,11.3825 31.1351,1.66359 31.4005,0.788018 31.6658,0 32.7273,0 h 6.5454 c 0.973,0 1.4153,0.437788 1.4153,1.66359 0,18.38711 0,34.58521 0,48.59451 0,0.8755 -0.4423,1.2258 -1.5037,1.2258 -3.1843,0 -6.457,0 -9.6413,-0.1751 -1.0614,-0.0876 -1.5037,-0.4378 -1.5037,-1.3134 0,-3.5899 0,-7.2673 0,-11.1198 0,-0.4378 -0.6192,-0.6129 -0.8845,-0.1751 -1.6806,3.7649 -3.3612,7.4424 -4.9533,10.9447 -0.3538,0.788 -0.7076,1.1382 -1.8575,1.0507 -0.0885,0 -0.0885,0 -0.1769,0 -1.1499,-0.0876 -1.5037,-0.613 -1.8575,-1.401 -1.6806,-3.8525 -3.3612,-7.8802 -4.9533,-12.0829 -0.1769,-0.4378 -0.8846,-0.4378 -0.8846,0 v 11.2074 c 0,0.8755 -0.4422,1.2258 -1.5036,1.0506 C 7.96069,48.7696 4.68796,48.1567 1.50369,47.2811 0.44226,47.0184 0,46.5806 0,45.6175 Z"
         fill="#184079"
         id="path1" /><path
         class="muzee"
         d="m 81.9058,1.40092 c 0,8.75578 0,17.33638 0,25.74198 0,1.1382 0,2.2765 0,3.3271 0,10.8572 -5.2187,18.9125 -17.2482,20.1383 -12.0295,1.1382 -17.2482,-5.6037 -17.2482,-16.8111 0,-2.2765 0,-4.6405 0,-7.0046 0,-7.8802 0,-16.2857 0,-25.12901 C 47.321,0.437788 47.7633,0 48.8247,0 h 9.6413 c 1.0614,0 1.5036,0.437788 1.5036,1.57604 v 27.58066 3.8525 c 0,4.1152 0.5308,7.8802 4.5996,7.4424 4.1572,-0.4378 4.5995,-4.2903 4.5995,-8.318 0,-2.364 0,-4.7281 0,-7.0921 0,-7.53 0,-15.32261 0,-23.46546 C 69.2571,0.437788 69.6994,0 70.7608,0 h 9.6413 c 1.0614,0 1.5037,0.437788 1.5037,1.40092 z"
         fill="#184079"
         id="path2" /><path
         class="muzee"
         d="m 101.189,34.6728 c -0.177,0.4378 -0.177,0.788 0.354,0.7005 4.599,-0.6129 9.287,-1.2258 13.887,-1.6636 1.061,-0.0876 1.503,0.2626 1.503,1.1382 0,2.4516 0,4.9908 0,7.53 0,0.9631 -0.442,1.4009 -1.503,1.4885 -8.934,0.8755 -17.8677,2.1013 -26.8013,3.2396 -1.0614,0.1751 -1.5037,-0.1751 -1.5037,-1.1383 0,-2.1889 0,-4.4654 0,-6.6543 0,-1.0507 0.1769,-1.3134 0.6192,-2.1014 C 92.9628,27.7558 98.1815,18.2995 103.4,9.89401 103.577,9.54378 103.577,9.19355 103.046,9.19355 98.27,9.45622 93.4051,9.80645 88.6287,10.0691 87.5673,10.1567 87.125,9.80645 87.125,8.84332 c 0,-2.53917 0,-4.99079 0,-7.52996 C 87.125,0.35023 87.5673,0 88.6287,0 H 115.43 c 1.061,0 1.503,0.35023 1.503,1.05069 0,1.83871 0,3.76498 0,5.7788 0,0.78802 -0.177,0.96314 -0.619,1.6636 -5.13,7.79261 -10.083,16.81101 -15.125,26.17971 z"
         fill="#184079"
         id="path3" /><path
         class="muzee"
         d="m 135.155,13.8343 c 0,0.788 0.265,1.0506 1.326,0.9631 3.361,-0.0876 6.634,-0.0876 9.995,0 1.062,0 1.504,0.3502 1.504,1.2258 v 6.6544 c 0,0.8756 -0.442,1.2258 -1.504,1.2258 -3.361,-0.0876 -6.634,-0.0876 -9.995,0 -1.061,0 -1.326,0.2627 -1.326,1.1382 v 5.9539 c 0,0.9632 0.265,1.1383 1.326,1.1383 3.361,-0.0876 6.634,-0.0876 9.995,0 1.062,0 1.504,0.4378 1.504,1.3134 v 7.5299 c 0,0.9631 -0.442,1.4009 -1.504,1.3134 -7.518,-0.1751 -14.948,0.0875 -22.466,0.7004 -1.062,0.0876 -1.504,-0.2626 -1.504,-1.2258 0,-15.4101 0,-28.9815 0,-40.801811 0,-0.788018 0.442,-1.0506913 1.504,-1.0506913 h 22.466 c 1.062,0 1.504,0.2626723 1.504,0.9631333 V 6.65453 c 0,0.78802 -0.442,1.05069 -1.504,1.05069 -3.361,0 -6.634,0 -9.995,0 -1.061,0 -1.326,0.26268 -1.326,0.96314 z"
         fill="#184079"
         id="path4" /><path
         class="muzee"
         d="m 167.174,15.1475 c 0,0.8755 0.265,1.1382 1.327,1.2258 3.361,0.4378 6.634,0.9631 9.995,1.576 1.061,0.1751 1.504,0.7005 1.504,1.576 0,2.4517 0,4.9033 0,7.3549 0,0.9631 -0.443,1.2258 -1.504,0.9631 -3.361,-0.788 -6.634,-1.4885 -9.995,-2.1014 -1.062,-0.1751 -1.327,0 -1.327,0.9632 v 6.0414 c 0,0.9632 0.265,1.2258 1.327,1.401 3.361,0.6129 6.634,1.3133 9.995,2.1889 1.061,0.2627 1.504,0.788 1.504,1.7512 0,2.4516 0,4.9032 0,7.3548 0,0.9631 -0.443,1.2258 -1.504,0.9631 -7.519,-1.8387 -14.949,-3.0645 -22.467,-3.5898 -1.061,-0.0876 -1.504,-0.5254 -1.504,-1.4885 V 1.05069 C 154.525,0.35023 154.968,0 156.029,0 h 22.467 c 1.061,0 1.504,0.35023 1.504,1.31336 0,2.45162 0,4.90323 0,7.35484 0,0.96314 -0.443,1.22581 -1.504,1.13825 -3.361,-0.43779 -6.634,-0.70046 -9.995,-1.05069 -1.062,-0.08756 -1.327,0.08756 -1.327,0.96313 z"
         fill="#184079"
         id="path5" /><path
         d="m 6.01557,76.0001 c -3.27273,0 -5.660931,-2.3641 -5.837836,-5.4286 0,-0.2627 0,-0.6129 0.442261,-0.5253 0.442265,0 0.884525,0.0875 1.326785,0.0875 0.3538,0 0.53071,0.1751 0.61916,0.5254 0.26536,1.7511 1.50369,3.3272 3.53808,3.3272 1.8575,0 3.27273,-1.2258 3.27273,-2.977 0.08845,-4.3779 -8.756755,-8.5806 -8.756755,-14.5346 0,-2.8894 2.211305,-4.553 5.130225,-3.94 3.00737,0.6129 4.95328,3.0645 5.13018,5.5161 0,0.3502 0,0.5253 -0.4422,0.5253 C 9.99592,58.4886 9.55365,58.4886 9.11139,58.401 8.84604,58.2259 8.66913,58.1383 8.66913,57.7881 8.40378,56.2121 7.4308,54.9863 5.92712,54.636 4.33498,54.3734 3.1851,55.2489 3.1851,56.825 c 0.08846,4.2027 8.7568,8.8433 8.7568,14.0968 -0.0885,3.0645 -2.91896,5.0783 -5.92633,5.0783 z"
         fill="#3dba93"
         id="path6" /><path
         d="m 16.8066,70.7466 c 0,-3.4147 0,-7.0046 0,-10.682 0,-3.6774 2.1229,-5.6037 5.4841,-5.2534 3.0958,0.2626 4.9533,2.1889 5.2186,4.8156 0,0.2627 0,0.5254 -0.4422,0.5254 -0.4423,0 -0.8845,-0.0876 -1.4152,-0.0876 -0.3539,0 -0.5308,-0.0875 -0.5308,-0.4378 -0.2653,-1.4884 -1.3267,-2.5391 -2.8304,-2.7143 -1.6806,-0.1751 -3.0074,0.9632 -3.0074,3.4148 v 10.5069 c 0,2.2765 1.3268,3.3272 3.0074,3.3272 1.5037,0 2.5651,-0.8756 2.8304,-2.189 0.0885,-0.2626 0.1769,-0.3502 0.5308,-0.3502 0.4422,0 0.8845,0 1.4152,0 0.3538,0 0.4422,0.2627 0.4422,0.4378 -0.2653,2.2765 -2.1228,3.765 -5.2186,3.765 -3.3612,0.1751 -5.4841,-1.576 -5.4841,-5.0784 z"
         fill="#3dba93"
         id="path7" /><path
         d="m 43.8724,56.212 c 0,6.9171 0,13.3088 0,19.0876 0,0.3502 -0.177,0.5253 -0.7077,0.5253 -0.3538,0 -0.7076,0 -1.0614,0 -0.5307,0 -0.7076,-0.1751 -0.7076,-0.5253 0,-2.5392 0,-5.2535 0,-8.0553 0,-0.4378 -0.0885,-0.5254 -0.6192,-0.5254 -1.5921,0 -3.0958,0 -4.6879,0 -0.5307,0 -0.6192,0.0876 -0.6192,0.5254 v 8.0553 c 0,0.3502 -0.1769,0.5253 -0.7076,0.5253 -0.3538,0 -0.7076,0 -1.1499,0 -0.5307,0 -0.7076,-0.1751 -0.7076,-0.5253 0,-5.7788 0,-12.1705 0,-19.0876 0,-0.4378 0.1769,-0.6129 0.7076,-0.6129 0.3538,0 0.7076,0 1.1499,0 0.5307,0 0.7076,0.1751 0.7076,0.6129 v 8.1429 c 0,0.4378 0.1769,0.5253 0.6192,0.5253 1.5921,0 3.0958,0 4.6879,0 0.5307,0 0.6192,-0.0875 0.6192,-0.5253 0,-2.6267 0,-5.341 0,-8.1429 0,-0.4378 0.1769,-0.6129 0.7076,-0.6129 0.3538,0 0.7076,0 1.0614,0 0.4423,0 0.7077,0.1751 0.7077,0.6129 z"
         fill="#3dba93"
         id="path8" /><path
         d="m 51.9206,64.1797 c 0,0.4378 0.0884,0.5253 0.6191,0.5253 1.5922,-0.0875 3.1843,-0.1751 4.7764,-0.1751 0.5308,0 0.7077,0.1751 0.7077,0.5254 0,0.2626 0,0.4378 0,0.7004 0,0.4378 -0.1769,0.6129 -0.7077,0.6129 -1.5921,0.0876 -3.1842,0.1751 -4.7764,0.1751 -0.5307,0 -0.6191,0.0876 -0.6191,0.5254 v 6.5668 c 0,0.3502 0.0884,0.5253 0.6191,0.4378 1.5922,0 3.1843,0 4.7764,-0.0876 0.5308,0 0.7077,0.1751 0.7077,0.5254 0,0.1751 0,0.4378 0,0.6129 0,0.3502 -0.1769,0.5253 -0.7077,0.5253 -2.3882,0 -4.7764,0 -7.253,0 -0.5307,0 -0.7076,-0.1751 -0.7076,-0.5253 0,-5.8664 0,-12.2581 0,-19.2627 0,-0.4378 0.1769,-0.6129 0.7076,-0.6129 2.3882,-0.0875 4.7764,-0.2626 7.253,-0.4378 0.5308,0 0.7077,0.0876 0.7077,0.6129 0,0.2627 0,0.5254 0,0.7881 0,0.4377 -0.1769,0.6129 -0.7077,0.7004 -1.5921,0.0876 -3.1842,0.1751 -4.7764,0.2627 -0.5307,0 -0.6191,0.1751 -0.6191,0.6129 z"
         fill="#3dba93"
         id="path9" /><path
         d="m 74.1229,53.3226 c 0.4423,-0.0876 0.8845,-0.0876 1.2383,-0.1751 0.3538,0 0.6192,0.0875 0.4423,0.6129 -1.8575,7.6175 -3.715,14.7972 -5.5725,21.4516 -0.0884,0.4378 -0.3538,0.5253 -0.8845,0.5253 -0.2654,0 -0.6192,0 -0.8845,0 -0.5307,0 -0.7076,-0.0875 -0.8846,-0.5253 C 65.72,68.7327 63.8625,62.0783 62.005,55.0737 c -0.0885,-0.4378 0.0884,-0.6129 0.4422,-0.6129 0.4423,0 0.7961,-0.0875 1.2384,-0.0875 0.4422,0 0.7076,0.0875 0.796,0.5253 1.4153,5.5161 2.742,10.8571 4.1573,16.1106 0.0884,0.1751 0.3538,0.1751 0.3538,0 1.4152,-5.341 2.742,-11.0322 4.1572,-16.9862 0.3538,-0.4378 0.6192,-0.6129 0.973,-0.7004 z"
         fill="#3dba93"
         id="path10" /><path
         d="m 82.7917,62.0786 c 0,0.4377 0.0884,0.6129 0.6191,0.5253 1.5922,-0.1751 3.1843,-0.2627 4.7764,-0.4378 0.5308,0 0.7077,0.1751 0.7077,0.6129 0,0.2627 0,0.5254 0,0.788 0,0.5254 -0.1769,0.7005 -0.7077,0.7005 -1.5921,0.0876 -3.1842,0.2627 -4.7764,0.3502 -0.5307,0 -0.6191,0.1751 -0.6191,0.6129 0,2.6268 0,5.1659 0,7.7927 0,0.4377 0.0884,0.6129 0.6191,0.6129 1.5922,0 3.1843,-0.0876 4.7764,-0.0876 0.5308,0 0.7077,0.1751 0.7077,0.7005 0,0.2626 0,0.5253 0,0.788 0,0.5253 -0.1769,0.7004 -0.7077,0.7004 -2.3882,0 -4.7764,0 -7.253,0 -0.5307,0 -0.7076,-0.1751 -0.7076,-0.6129 V 53.3228 c 0,-0.4378 0.1769,-0.7005 0.7076,-0.788 2.3882,-0.2627 4.7764,-0.6129 7.253,-0.8756 0.5308,-0.0876 0.7077,0.0876 0.7077,0.6129 0,0.2627 0,0.5253 0,0.788 0,0.5254 -0.1769,0.7005 -0.7077,0.788 -1.5921,0.1752 -3.1842,0.3503 -4.7764,0.5254 -0.5307,0.0875 -0.6191,0.1751 -0.6191,0.7004 0,2.3641 0,4.7282 0,7.0047 z"
         fill="#3dba93"
         id="path11" /><path
         d="m 106.054,50.2579 v 24.6913 c 0,0.5253 -0.177,0.788 -0.708,0.788 -0.265,0 -0.531,0 -0.884,0 -0.531,0 -0.708,-0.1751 -0.885,-0.7005 -2.123,-6.0414 -4.3341,-11.7327 -6.4569,-17.1613 -0.0885,-0.2626 -0.3538,-0.1751 -0.3538,0.0876 v 17.1613 c 0,0.5253 -0.1769,0.7005 -0.7076,0.7005 -0.3538,0 -0.7076,0 -1.1499,0 -0.5307,0 -0.7076,-0.1752 -0.7076,-0.7005 0,-7.8802 0,-15.6728 0,-23.4654 0,-0.5254 0.1769,-0.7005 0.7076,-0.7881 0.2653,0 0.5307,-0.0875 0.8845,-0.0875 0.5307,-0.0876 0.7076,0.0875 0.8845,0.6129 2.1229,5.341 4.3342,10.8571 6.4572,16.7235 0.088,0.2627 0.354,0.1751 0.354,-0.0876 V 50.5206 c 0,-0.5253 0.177,-0.7005 0.707,-0.788 0.354,0 0.708,-0.0876 1.15,-0.0876 0.531,-0.0875 0.708,0.0876 0.708,0.6129 z"
         fill="#3dba93"
         id="path12" /><path
         d="m 111.627,49.7327 c 0,-0.5254 0.177,-0.7005 0.708,-0.788 0.353,0 0.707,-0.0876 1.149,-0.0876 0.531,-0.0875 0.708,0.1751 0.708,0.6129 v 25.4793 c 0,0.5253 -0.177,0.788 -0.708,0.788 -0.353,0 -0.707,0 -1.149,0 -0.531,0 -0.708,-0.2627 -0.708,-0.788 z"
         fill="#3dba93"
         id="path13" /><path
         d="m 131.528,48.2441 v 26.6175 c 0,0.6129 -0.177,0.8756 -0.707,0.8756 -0.266,0 -0.531,0 -0.885,0 -0.53,0 -0.707,-0.1752 -0.884,-0.8756 -2.123,-6.742 -4.334,-13.1337 -6.457,-19.1751 -0.089,-0.2627 -0.354,-0.1751 -0.354,0.0875 0,6.1291 0,12.5208 0,19.0876 0,0.6129 -0.177,0.788 -0.708,0.788 -0.354,0 -0.707,0 -1.15,0 -0.53,0 -0.707,-0.2627 -0.707,-0.788 0,-9.106 0,-17.7742 0,-25.9171 0,-0.5253 0.177,-0.788 0.707,-0.788 0.266,0 0.531,-0.0875 0.885,-0.0875 0.531,0 0.708,0.0875 0.884,0.7004 2.123,5.7788 4.335,11.9078 6.457,18.3871 0.089,0.2627 0.354,0.2627 0.354,-0.0875 0,-6.5669 0,-12.7835 0,-18.7374 0,-0.5253 0.177,-0.788 0.708,-0.788 0.354,0 0.707,0 1.15,-0.0875 0.442,0 0.707,0.2626 0.707,0.788 z"
         fill="#3dba93"
         id="path14" /><path
         d="m 147.803,60.0645 c 0,2.8018 0,5.6912 0,8.5806 0,4.6406 -2.122,7.3548 -5.395,7.3548 -3.361,0 -5.484,-2.8018 -5.484,-7.7926 0,-4.9032 0,-9.6313 0,-14.2719 0,-4.553 2.123,-7.0046 5.484,-7.0921 3.096,0 5.042,2.2765 5.307,5.4285 0,0.3503 0,0.6129 -0.442,0.6129 -0.443,0 -0.973,0 -1.416,0 -0.353,0 -0.53,-0.0875 -0.619,-0.5253 -0.265,-1.7512 -1.326,-3.0645 -2.83,-3.0645 -1.681,0 -3.008,1.4009 -3.008,4.4654 v 14.2719 c 0,3.3272 1.416,4.9032 3.008,4.9032 1.504,0 2.919,-1.4885 2.919,-4.6405 0,-2.1014 0,-4.1152 0,-6.1291 0,-0.7004 0,-0.788 -0.619,-0.788 -0.531,0 -1.15,0 -1.681,0 -0.531,0 -0.619,-0.1751 -0.619,-0.788 0,-0.2627 0,-0.6129 0,-0.8756 0,-0.5253 0.177,-0.788 0.619,-0.788 1.415,0 2.742,0 4.157,0 0.443,0.4378 0.619,0.6129 0.619,1.1383 z"
         fill="#3dba93"
         id="path15" /><path
         d="m 155.676,58.8385 c 0,0.5254 0.089,0.7005 0.62,0.7005 1.592,0.0876 3.184,0.1751 4.776,0.2627 0.531,0 0.708,0.2626 0.708,0.788 v 0.8756 c 0,0.5253 -0.177,0.788 -0.708,0.7004 -1.592,-0.0875 -3.184,-0.1751 -4.776,-0.2626 -0.531,0 -0.62,0.0875 -0.62,0.7004 0,3.1521 0,6.3042 0,9.5438 0,0.6129 0.089,0.788 0.62,0.788 1.592,0 3.184,0 4.776,0.0876 0.531,0 0.708,0.2626 0.708,0.788 v 0.9631 c 0,0.6129 -0.177,0.788 -0.708,0.788 -2.388,0 -4.776,0 -7.253,0 -0.531,0 -0.708,-0.2626 -0.708,-0.8755 0,-9.3687 0,-18.212 0,-26.53 0,-0.5253 0.177,-0.7004 0.708,-0.7004 2.388,0.1751 4.776,0.3502 7.253,0.6129 0.531,0.0875 0.708,0.2626 0.708,0.788 v 0.8756 c 0,0.5253 -0.177,0.7004 -0.708,0.7004 -1.592,-0.1751 -3.184,-0.2627 -4.776,-0.4378 -0.531,0 -0.62,0.0876 -0.62,0.6129 0,2.8019 0,5.5162 0,8.2304 z"
         fill="#3dba93"
         id="path16" /><path
         d="m 179.026,51.9218 c 0,7.7051 0,15.4102 0,23.1152 0,0.5254 -0.176,0.7005 -0.707,0.7005 -0.266,0 -0.531,0 -0.885,0 -0.53,0 -0.707,-0.1751 -0.884,-0.7005 -2.123,-5.7788 -4.334,-11.9954 -6.457,-18.1244 -0.089,-0.2627 -0.354,-0.2627 -0.354,0 0,5.8664 0,11.9078 0,18.1244 0,0.5254 -0.177,0.7881 -0.708,0.7881 -0.353,0 -0.707,0 -1.15,0 -0.53,0 -0.707,-0.2627 -0.707,-0.7881 0,-8.7557 0,-17.1613 0,-25.2166 0,-0.5253 0.177,-0.7004 0.707,-0.6129 0.266,0 0.531,0.0876 0.885,0.1752 0.531,0.0875 0.708,0.2626 0.884,0.8755 2.123,6.1291 4.335,12.3457 6.458,18.2996 0.088,0.2626 0.353,0.2626 0.353,0 0,-5.6913 0,-11.3825 0,-16.9862 0,-0.5254 0.177,-0.6129 0.708,-0.5254 0.354,0.0876 0.708,0.1752 1.15,0.2627 0.442,-0.0875 0.707,0.0876 0.707,0.6129 z"
         fill="#3dba93"
         id="path17" /></g><g
       id="g34"
       inkscape:label="black"
       style="fill:#000000"><path
         class="muzee"
         d="M 0,45.6175 C 0,30.8203 0,16.1106 0,1.31336 0,0.35023 0.44226,0 1.50369,0 h 6.457 C 9.02211,0 9.28747,0.700461 9.55282,1.48848 13.0025,10.3318 16.4521,19.6129 19.9017,28.3687 c 0.1769,0.4378 0.7076,0.4378 0.8845,0.0875 C 24.2359,20.3134 27.6855,11.3825 31.1351,1.66359 31.4005,0.788018 31.6658,0 32.7273,0 h 6.5454 c 0.973,0 1.4153,0.437788 1.4153,1.66359 0,18.38711 0,34.58521 0,48.59451 0,0.8755 -0.4423,1.2258 -1.5037,1.2258 -3.1843,0 -6.457,0 -9.6413,-0.1751 -1.0614,-0.0876 -1.5037,-0.4378 -1.5037,-1.3134 0,-3.5899 0,-7.2673 0,-11.1198 0,-0.4378 -0.6192,-0.6129 -0.8845,-0.1751 -1.6806,3.7649 -3.3612,7.4424 -4.9533,10.9447 -0.3538,0.788 -0.7076,1.1382 -1.8575,1.0507 -0.0885,0 -0.0885,0 -0.1769,0 -1.1499,-0.0876 -1.5037,-0.613 -1.8575,-1.401 -1.6806,-3.8525 -3.3612,-7.8802 -4.9533,-12.0829 -0.1769,-0.4378 -0.8846,-0.4378 -0.8846,0 v 11.2074 c 0,0.8755 -0.4422,1.2258 -1.5036,1.0506 C 7.96069,48.7696 4.68796,48.1567 1.50369,47.2811 0.44226,47.0184 0,46.5806 0,45.6175 Z"
         fill="#184079"
         id="path18"
         style="fill:#000000" /><path
         class="muzee"
         d="m 81.9058,1.40092 c 0,8.75578 0,17.33638 0,25.74198 0,1.1382 0,2.2765 0,3.3271 0,10.8572 -5.2187,18.9125 -17.2482,20.1383 -12.0295,1.1382 -17.2482,-5.6037 -17.2482,-16.8111 0,-2.2765 0,-4.6405 0,-7.0046 0,-7.8802 0,-16.2857 0,-25.12901 C 47.321,0.437788 47.7633,0 48.8247,0 h 9.6413 c 1.0614,0 1.5036,0.437788 1.5036,1.57604 v 27.58066 3.8525 c 0,4.1152 0.5308,7.8802 4.5996,7.4424 4.1572,-0.4378 4.5995,-4.2903 4.5995,-8.318 0,-2.364 0,-4.7281 0,-7.0921 0,-7.53 0,-15.32261 0,-23.46546 C 69.2571,0.437788 69.6994,0 70.7608,0 h 9.6413 c 1.0614,0 1.5037,0.437788 1.5037,1.40092 z"
         fill="#184079"
         id="path19"
         style="fill:#000000" /><path
         class="muzee"
         d="m 101.189,34.6728 c -0.177,0.4378 -0.177,0.788 0.354,0.7005 4.599,-0.6129 9.287,-1.2258 13.887,-1.6636 1.061,-0.0876 1.503,0.2626 1.503,1.1382 0,2.4516 0,4.9908 0,7.53 0,0.9631 -0.442,1.4009 -1.503,1.4885 -8.934,0.8755 -17.8677,2.1013 -26.8013,3.2396 -1.0614,0.1751 -1.5037,-0.1751 -1.5037,-1.1383 0,-2.1889 0,-4.4654 0,-6.6543 0,-1.0507 0.1769,-1.3134 0.6192,-2.1014 C 92.9628,27.7558 98.1815,18.2995 103.4,9.89401 103.577,9.54378 103.577,9.19355 103.046,9.19355 98.27,9.45622 93.4051,9.80645 88.6287,10.0691 87.5673,10.1567 87.125,9.80645 87.125,8.84332 c 0,-2.53917 0,-4.99079 0,-7.52996 C 87.125,0.35023 87.5673,0 88.6287,0 H 115.43 c 1.061,0 1.503,0.35023 1.503,1.05069 0,1.83871 0,3.76498 0,5.7788 0,0.78802 -0.177,0.96314 -0.619,1.6636 -5.13,7.79261 -10.083,16.81101 -15.125,26.17971 z"
         fill="#184079"
         id="path20"
         style="fill:#000000" /><path
         class="muzee"
         d="m 135.155,13.8343 c 0,0.788 0.265,1.0506 1.326,0.9631 3.361,-0.0876 6.634,-0.0876 9.995,0 1.062,0 1.504,0.3502 1.504,1.2258 v 6.6544 c 0,0.8756 -0.442,1.2258 -1.504,1.2258 -3.361,-0.0876 -6.634,-0.0876 -9.995,0 -1.061,0 -1.326,0.2627 -1.326,1.1382 v 5.9539 c 0,0.9632 0.265,1.1383 1.326,1.1383 3.361,-0.0876 6.634,-0.0876 9.995,0 1.062,0 1.504,0.4378 1.504,1.3134 v 7.5299 c 0,0.9631 -0.442,1.4009 -1.504,1.3134 -7.518,-0.1751 -14.948,0.0875 -22.466,0.7004 -1.062,0.0876 -1.504,-0.2626 -1.504,-1.2258 0,-15.4101 0,-28.9815 0,-40.801811 0,-0.788018 0.442,-1.0506913 1.504,-1.0506913 h 22.466 c 1.062,0 1.504,0.2626723 1.504,0.9631333 V 6.65453 c 0,0.78802 -0.442,1.05069 -1.504,1.05069 -3.361,0 -6.634,0 -9.995,0 -1.061,0 -1.326,0.26268 -1.326,0.96314 z"
         fill="#184079"
         id="path21"
         style="fill:#000000" /><path
         class="muzee"
         d="m 167.174,15.1475 c 0,0.8755 0.265,1.1382 1.327,1.2258 3.361,0.4378 6.634,0.9631 9.995,1.576 1.061,0.1751 1.504,0.7005 1.504,1.576 0,2.4517 0,4.9033 0,7.3549 0,0.9631 -0.443,1.2258 -1.504,0.9631 -3.361,-0.788 -6.634,-1.4885 -9.995,-2.1014 -1.062,-0.1751 -1.327,0 -1.327,0.9632 v 6.0414 c 0,0.9632 0.265,1.2258 1.327,1.401 3.361,0.6129 6.634,1.3133 9.995,2.1889 1.061,0.2627 1.504,0.788 1.504,1.7512 0,2.4516 0,4.9032 0,7.3548 0,0.9631 -0.443,1.2258 -1.504,0.9631 -7.519,-1.8387 -14.949,-3.0645 -22.467,-3.5898 -1.061,-0.0876 -1.504,-0.5254 -1.504,-1.4885 V 1.05069 C 154.525,0.35023 154.968,0 156.029,0 h 22.467 c 1.061,0 1.504,0.35023 1.504,1.31336 0,2.45162 0,4.90323 0,7.35484 0,0.96314 -0.443,1.22581 -1.504,1.13825 -3.361,-0.43779 -6.634,-0.70046 -9.995,-1.05069 -1.062,-0.08756 -1.327,0.08756 -1.327,0.96313 z"
         fill="#184079"
         id="path22"
         style="fill:#000000" /><path
         d="m 6.01557,76.0001 c -3.27273,0 -5.660931,-2.3641 -5.837836,-5.4286 0,-0.2627 0,-0.6129 0.442261,-0.5253 0.442265,0 0.884525,0.0875 1.326785,0.0875 0.3538,0 0.53071,0.1751 0.61916,0.5254 0.26536,1.7511 1.50369,3.3272 3.53808,3.3272 1.8575,0 3.27273,-1.2258 3.27273,-2.977 0.08845,-4.3779 -8.756755,-8.5806 -8.756755,-14.5346 0,-2.8894 2.211305,-4.553 5.130225,-3.94 3.00737,0.6129 4.95328,3.0645 5.13018,5.5161 0,0.3502 0,0.5253 -0.4422,0.5253 C 9.99592,58.4886 9.55365,58.4886 9.11139,58.401 8.84604,58.2259 8.66913,58.1383 8.66913,57.7881 8.40378,56.2121 7.4308,54.9863 5.92712,54.636 4.33498,54.3734 3.1851,55.2489 3.1851,56.825 c 0.08846,4.2027 8.7568,8.8433 8.7568,14.0968 -0.0885,3.0645 -2.91896,5.0783 -5.92633,5.0783 z"
         fill="#3dba93"
         id="path23"
         style="fill:#000000" /><path
         d="m 16.8066,70.7466 c 0,-3.4147 0,-7.0046 0,-10.682 0,-3.6774 2.1229,-5.6037 5.4841,-5.2534 3.0958,0.2626 4.9533,2.1889 5.2186,4.8156 0,0.2627 0,0.5254 -0.4422,0.5254 -0.4423,0 -0.8845,-0.0876 -1.4152,-0.0876 -0.3539,0 -0.5308,-0.0875 -0.5308,-0.4378 -0.2653,-1.4884 -1.3267,-2.5391 -2.8304,-2.7143 -1.6806,-0.1751 -3.0074,0.9632 -3.0074,3.4148 v 10.5069 c 0,2.2765 1.3268,3.3272 3.0074,3.3272 1.5037,0 2.5651,-0.8756 2.8304,-2.189 0.0885,-0.2626 0.1769,-0.3502 0.5308,-0.3502 0.4422,0 0.8845,0 1.4152,0 0.3538,0 0.4422,0.2627 0.4422,0.4378 -0.2653,2.2765 -2.1228,3.765 -5.2186,3.765 -3.3612,0.1751 -5.4841,-1.576 -5.4841,-5.0784 z"
         fill="#3dba93"
         id="path24"
         style="fill:#000000" /><path
         d="m 43.8724,56.212 c 0,6.9171 0,13.3088 0,19.0876 0,0.3502 -0.177,0.5253 -0.7077,0.5253 -0.3538,0 -0.7076,0 -1.0614,0 -0.5307,0 -0.7076,-0.1751 -0.7076,-0.5253 0,-2.5392 0,-5.2535 0,-8.0553 0,-0.4378 -0.0885,-0.5254 -0.6192,-0.5254 -1.5921,0 -3.0958,0 -4.6879,0 -0.5307,0 -0.6192,0.0876 -0.6192,0.5254 v 8.0553 c 0,0.3502 -0.1769,0.5253 -0.7076,0.5253 -0.3538,0 -0.7076,0 -1.1499,0 -0.5307,0 -0.7076,-0.1751 -0.7076,-0.5253 0,-5.7788 0,-12.1705 0,-19.0876 0,-0.4378 0.1769,-0.6129 0.7076,-0.6129 0.3538,0 0.7076,0 1.1499,0 0.5307,0 0.7076,0.1751 0.7076,0.6129 v 8.1429 c 0,0.4378 0.1769,0.5253 0.6192,0.5253 1.5921,0 3.0958,0 4.6879,0 0.5307,0 0.6192,-0.0875 0.6192,-0.5253 0,-2.6267 0,-5.341 0,-8.1429 0,-0.4378 0.1769,-0.6129 0.7076,-0.6129 0.3538,0 0.7076,0 1.0614,0 0.4423,0 0.7077,0.1751 0.7077,0.6129 z"
         fill="#3dba93"
         id="path25"
         style="fill:#000000" /><path
         d="m 51.9206,64.1797 c 0,0.4378 0.0884,0.5253 0.6191,0.5253 1.5922,-0.0875 3.1843,-0.1751 4.7764,-0.1751 0.5308,0 0.7077,0.1751 0.7077,0.5254 0,0.2626 0,0.4378 0,0.7004 0,0.4378 -0.1769,0.6129 -0.7077,0.6129 -1.5921,0.0876 -3.1842,0.1751 -4.7764,0.1751 -0.5307,0 -0.6191,0.0876 -0.6191,0.5254 v 6.5668 c 0,0.3502 0.0884,0.5253 0.6191,0.4378 1.5922,0 3.1843,0 4.7764,-0.0876 0.5308,0 0.7077,0.1751 0.7077,0.5254 0,0.1751 0,0.4378 0,0.6129 0,0.3502 -0.1769,0.5253 -0.7077,0.5253 -2.3882,0 -4.7764,0 -7.253,0 -0.5307,0 -0.7076,-0.1751 -0.7076,-0.5253 0,-5.8664 0,-12.2581 0,-19.2627 0,-0.4378 0.1769,-0.6129 0.7076,-0.6129 2.3882,-0.0875 4.7764,-0.2626 7.253,-0.4378 0.5308,0 0.7077,0.0876 0.7077,0.6129 0,0.2627 0,0.5254 0,0.7881 0,0.4377 -0.1769,0.6129 -0.7077,0.7004 -1.5921,0.0876 -3.1842,0.1751 -4.7764,0.2627 -0.5307,0 -0.6191,0.1751 -0.6191,0.6129 z"
         fill="#3dba93"
         id="path26"
         style="fill:#000000" /><path
         d="m 74.1229,53.3226 c 0.4423,-0.0876 0.8845,-0.0876 1.2383,-0.1751 0.3538,0 0.6192,0.0875 0.4423,0.6129 -1.8575,7.6175 -3.715,14.7972 -5.5725,21.4516 -0.0884,0.4378 -0.3538,0.5253 -0.8845,0.5253 -0.2654,0 -0.6192,0 -0.8845,0 -0.5307,0 -0.7076,-0.0875 -0.8846,-0.5253 C 65.72,68.7327 63.8625,62.0783 62.005,55.0737 c -0.0885,-0.4378 0.0884,-0.6129 0.4422,-0.6129 0.4423,0 0.7961,-0.0875 1.2384,-0.0875 0.4422,0 0.7076,0.0875 0.796,0.5253 1.4153,5.5161 2.742,10.8571 4.1573,16.1106 0.0884,0.1751 0.3538,0.1751 0.3538,0 1.4152,-5.341 2.742,-11.0322 4.1572,-16.9862 0.3538,-0.4378 0.6192,-0.6129 0.973,-0.7004 z"
         fill="#3dba93"
         id="path27"
         style="fill:#000000" /><path
         d="m 82.7917,62.0786 c 0,0.4377 0.0884,0.6129 0.6191,0.5253 1.5922,-0.1751 3.1843,-0.2627 4.7764,-0.4378 0.5308,0 0.7077,0.1751 0.7077,0.6129 0,0.2627 0,0.5254 0,0.788 0,0.5254 -0.1769,0.7005 -0.7077,0.7005 -1.5921,0.0876 -3.1842,0.2627 -4.7764,0.3502 -0.5307,0 -0.6191,0.1751 -0.6191,0.6129 0,2.6268 0,5.1659 0,7.7927 0,0.4377 0.0884,0.6129 0.6191,0.6129 1.5922,0 3.1843,-0.0876 4.7764,-0.0876 0.5308,0 0.7077,0.1751 0.7077,0.7005 0,0.2626 0,0.5253 0,0.788 0,0.5253 -0.1769,0.7004 -0.7077,0.7004 -2.3882,0 -4.7764,0 -7.253,0 -0.5307,0 -0.7076,-0.1751 -0.7076,-0.6129 V 53.3228 c 0,-0.4378 0.1769,-0.7005 0.7076,-0.788 2.3882,-0.2627 4.7764,-0.6129 7.253,-0.8756 0.5308,-0.0876 0.7077,0.0876 0.7077,0.6129 0,0.2627 0,0.5253 0,0.788 0,0.5254 -0.1769,0.7005 -0.7077,0.788 -1.5921,0.1752 -3.1842,0.3503 -4.7764,0.5254 -0.5307,0.0875 -0.6191,0.1751 -0.6191,0.7004 0,2.3641 0,4.7282 0,7.0047 z"
         fill="#3dba93"
         id="path28"
         style="fill:#000000" /><path
         d="m 106.054,50.2579 v 24.6913 c 0,0.5253 -0.177,0.788 -0.708,0.788 -0.265,0 -0.531,0 -0.884,0 -0.531,0 -0.708,-0.1751 -0.885,-0.7005 -2.123,-6.0414 -4.3341,-11.7327 -6.4569,-17.1613 -0.0885,-0.2626 -0.3538,-0.1751 -0.3538,0.0876 v 17.1613 c 0,0.5253 -0.1769,0.7005 -0.7076,0.7005 -0.3538,0 -0.7076,0 -1.1499,0 -0.5307,0 -0.7076,-0.1752 -0.7076,-0.7005 0,-7.8802 0,-15.6728 0,-23.4654 0,-0.5254 0.1769,-0.7005 0.7076,-0.7881 0.2653,0 0.5307,-0.0875 0.8845,-0.0875 0.5307,-0.0876 0.7076,0.0875 0.8845,0.6129 2.1229,5.341 4.3342,10.8571 6.4572,16.7235 0.088,0.2627 0.354,0.1751 0.354,-0.0876 V 50.5206 c 0,-0.5253 0.177,-0.7005 0.707,-0.788 0.354,0 0.708,-0.0876 1.15,-0.0876 0.531,-0.0875 0.708,0.0876 0.708,0.6129 z"
         fill="#3dba93"
         id="path29"
         style="fill:#000000" /><path
         d="m 111.627,49.7327 c 0,-0.5254 0.177,-0.7005 0.708,-0.788 0.353,0 0.707,-0.0876 1.149,-0.0876 0.531,-0.0875 0.708,0.1751 0.708,0.6129 v 25.4793 c 0,0.5253 -0.177,0.788 -0.708,0.788 -0.353,0 -0.707,0 -1.149,0 -0.531,0 -0.708,-0.2627 -0.708,-0.788 z"
         fill="#3dba93"
         id="path30"
         style="fill:#000000" /><path
         d="m 131.528,48.2441 v 26.6175 c 0,0.6129 -0.177,0.8756 -0.707,0.8756 -0.266,0 -0.531,0 -0.885,0 -0.53,0 -0.707,-0.1752 -0.884,-0.8756 -2.123,-6.742 -4.334,-13.1337 -6.457,-19.1751 -0.089,-0.2627 -0.354,-0.1751 -0.354,0.0875 0,6.1291 0,12.5208 0,19.0876 0,0.6129 -0.177,0.788 -0.708,0.788 -0.354,0 -0.707,0 -1.15,0 -0.53,0 -0.707,-0.2627 -0.707,-0.788 0,-9.106 0,-17.7742 0,-25.9171 0,-0.5253 0.177,-0.788 0.707,-0.788 0.266,0 0.531,-0.0875 0.885,-0.0875 0.531,0 0.708,0.0875 0.884,0.7004 2.123,5.7788 4.335,11.9078 6.457,18.3871 0.089,0.2627 0.354,0.2627 0.354,-0.0875 0,-6.5669 0,-12.7835 0,-18.7374 0,-0.5253 0.177,-0.788 0.708,-0.788 0.354,0 0.707,0 1.15,-0.0875 0.442,0 0.707,0.2626 0.707,0.788 z"
         fill="#3dba93"
         id="path31"
         style="fill:#000000" /><path
         d="m 147.803,60.0645 c 0,2.8018 0,5.6912 0,8.5806 0,4.6406 -2.122,7.3548 -5.395,7.3548 -3.361,0 -5.484,-2.8018 -5.484,-7.7926 0,-4.9032 0,-9.6313 0,-14.2719 0,-4.553 2.123,-7.0046 5.484,-7.0921 3.096,0 5.042,2.2765 5.307,5.4285 0,0.3503 0,0.6129 -0.442,0.6129 -0.443,0 -0.973,0 -1.416,0 -0.353,0 -0.53,-0.0875 -0.619,-0.5253 -0.265,-1.7512 -1.326,-3.0645 -2.83,-3.0645 -1.681,0 -3.008,1.4009 -3.008,4.4654 v 14.2719 c 0,3.3272 1.416,4.9032 3.008,4.9032 1.504,0 2.919,-1.4885 2.919,-4.6405 0,-2.1014 0,-4.1152 0,-6.1291 0,-0.7004 0,-0.788 -0.619,-0.788 -0.531,0 -1.15,0 -1.681,0 -0.531,0 -0.619,-0.1751 -0.619,-0.788 0,-0.2627 0,-0.6129 0,-0.8756 0,-0.5253 0.177,-0.788 0.619,-0.788 1.415,0 2.742,0 4.157,0 0.443,0.4378 0.619,0.6129 0.619,1.1383 z"
         fill="#3dba93"
         id="path32"
         style="fill:#000000" /><path
         d="m 155.676,58.8385 c 0,0.5254 0.089,0.7005 0.62,0.7005 1.592,0.0876 3.184,0.1751 4.776,0.2627 0.531,0 0.708,0.2626 0.708,0.788 v 0.8756 c 0,0.5253 -0.177,0.788 -0.708,0.7004 -1.592,-0.0875 -3.184,-0.1751 -4.776,-0.2626 -0.531,0 -0.62,0.0875 -0.62,0.7004 0,3.1521 0,6.3042 0,9.5438 0,0.6129 0.089,0.788 0.62,0.788 1.592,0 3.184,0 4.776,0.0876 0.531,0 0.708,0.2626 0.708,0.788 v 0.9631 c 0,0.6129 -0.177,0.788 -0.708,0.788 -2.388,0 -4.776,0 -7.253,0 -0.531,0 -0.708,-0.2626 -0.708,-0.8755 0,-9.3687 0,-18.212 0,-26.53 0,-0.5253 0.177,-0.7004 0.708,-0.7004 2.388,0.1751 4.776,0.3502 7.253,0.6129 0.531,0.0875 0.708,0.2626 0.708,0.788 v 0.8756 c 0,0.5253 -0.177,0.7004 -0.708,0.7004 -1.592,-0.1751 -3.184,-0.2627 -4.776,-0.4378 -0.531,0 -0.62,0.0876 -0.62,0.6129 0,2.8019 0,5.5162 0,8.2304 z"
         fill="#3dba93"
         id="path33"
         style="fill:#000000" /><path
         d="m 179.026,51.9218 c 0,7.7051 0,15.4102 0,23.1152 0,0.5254 -0.176,0.7005 -0.707,0.7005 -0.266,0 -0.531,0 -0.885,0 -0.53,0 -0.707,-0.1751 -0.884,-0.7005 -2.123,-5.7788 -4.334,-11.9954 -6.457,-18.1244 -0.089,-0.2627 -0.354,-0.2627 -0.354,0 0,5.8664 0,11.9078 0,18.1244 0,0.5254 -0.177,0.7881 -0.708,0.7881 -0.353,0 -0.707,0 -1.15,0 -0.53,0 -0.707,-0.2627 -0.707,-0.7881 0,-8.7557 0,-17.1613 0,-25.2166 0,-0.5253 0.177,-0.7004 0.707,-0.6129 0.266,0 0.531,0.0876 0.885,0.1752 0.531,0.0875 0.708,0.2626 0.884,0.8755 2.123,6.1291 4.335,12.3457 6.458,18.2996 0.088,0.2626 0.353,0.2626 0.353,0 0,-5.6913 0,-11.3825 0,-16.9862 0,-0.5254 0.177,-0.6129 0.708,-0.5254 0.354,0.0876 0.708,0.1752 1.15,0.2627 0.442,-0.0875 0.707,0.0876 0.707,0.6129 z"
         fill="#3dba93"
         id="path34"
         style="fill:#000000" /></g></g><g
     id="logo-clubmeister"
     fill-rule="nonzero"
     style="display:inline;fill:none;stroke:none;stroke-width:1"
     transform="matrix(0.10591633,0,0,0.10591633,-0.02694711,0)"><g
       id="g38"
       inkscape:label="color"><path
         d="m 192.78988,51.38843 c 11.39493,0 19.68216,6.603305 21.88346,16.961432 h -13.72572 c -1.55386,-3.495868 -4.66157,-5.30854 -8.41672,-5.30854 -5.82696,0 -9.71159,4.531681 -9.71159,11.523416 0,7.121212 3.88463,11.652893 9.71159,11.652893 3.75515,0 6.73337,-1.942149 8.41672,-5.30854 h 13.72572 C 212.34255,91.267218 204.18481,97.870523 192.78988,97.870523 179.06415,97.741047 170,88.15978 170,74.564738 170,60.969697 179.06415,51.38843 192.78988,51.38843 Z m 40.52972,0.388429 V 87.77135 h 14.24367 v 9.710744 H 220.62978 V 51.776859 Z m 18.90524,0 h 12.68982 v 26.5427 c 0,4.790634 2.0718,7.768595 6.86286,7.768595 4.79105,0 7.12183,-2.977961 7.12183,-7.768595 v -26.5427 h 12.68982 v 26.5427 C 291.58917,91.396694 282.52501,98 271.51854,98 c -11.00647,0 -19.2937,-6.603306 -19.2937,-19.680441 z m 68.88758,45.705235 H 298.45203 V 51.776859 h 21.88346 c 9.32313,0 15.0206,4.272728 15.0206,11.911846 0,5.438017 -3.2372,9.192838 -7.76927,10.358127 5.43849,1.294766 8.80517,5.826446 8.80517,11.00551 0,7.639118 -5.43849,12.429752 -15.27957,12.429752 z m -3.49618,-35.606061 h -6.47439 v 8.027548 h 6.47439 c 3.10771,0 4.79106,-1.294766 4.79106,-3.884297 0,-2.719009 -1.68335,-4.143251 -4.79106,-4.143251 z m 0.90642,17.090909 h -7.38081 v 8.286502 h 7.38081 c 3.2372,0 4.79105,-1.294766 4.79105,-4.013775 0.12949,-2.848484 -1.68334,-4.272727 -4.79105,-4.272727 z m 23.43732,-27.190083 h 15.40906 l 11.52443,29.650138 11.26545,-29.650138 h 15.15009 V 97.482094 H 382.61919 V 72.23416 l -8.67569,25.247934 h -10.61801 l -8.6757,-25.377411 v 25.377411 h -12.68981 z m 89.73513,10.228651 h -16.57445 v 7.509642 h 14.63214 v 9.710743 h -14.63214 v 8.157025 h 16.57445 V 97.61157 H 402.43084 V 51.906336 h 29.26427 z m 6.21543,-10.228651 h 12.68981 v 45.705235 h -12.68981 z m 37.16303,46.093664 c -10.22954,0 -18.12831,-4.92011 -18.64626,-14.630854 h 13.59623 c 0.25898,3.495868 2.33079,4.531681 4.53208,4.531681 2.33078,0 4.01413,-1.165289 4.01413,-3.236915 0,-7.380165 -22.27193,-3.884297 -22.01295,-19.809917 C 456.5568,55.790634 464.0671,51 473.6492,51 c 10.48853,0 17.35139,5.179063 17.86934,14.242424 h -13.85521 c -0.12949,-2.848485 -1.94232,-4.14325 -4.14361,-4.14325 -1.94232,0 -3.36669,1.035812 -3.36669,3.236914 0,6.862259 22.01295,4.661157 22.01295,19.292011 0,8.027548 -6.21542,14.242424 -17.09241,14.242424 z m 20.4591,-46.093664 h 36.90406 V 61.876033 H 520.26486 V 97.482094 H 507.57504 V 61.876033 h -12.04237 z m 70.8299,10.228651 h -16.57446 v 7.509642 h 14.63214 v 9.710743 h -14.63214 v 8.157025 h 16.57446 V 97.61157 H 537.09829 V 51.906336 h 29.26428 z m 26.28605,-10.228651 c 11.39493,0 17.0924,6.47383 17.0924,14.630854 0,5.955923 -3.23719,11.134987 -10.10005,13.206612 L 610,97.482094 h -14.24367 l -9.06416,-16.831956 h -1.29488 V 97.482094 H 572.70748 V 51.776859 Z m -1.03591,10.61708 h -6.34491 v 9.581268 h 6.34491 c 3.49618,0 5.17952,-1.683196 5.17952,-4.790634 0,-2.848485 -1.81283,-4.790634 -5.17952,-4.790634 z"
         id="Text"
         fill="#00a6ed" /><g
         id="Icon"><g
           id="Group"
           transform="translate(75.163793,75.313596)"
           fill="#d2f2ff"><path
             d="m 58.353448,50.66 c 0,4.275652 -3.362069,7.644348 -7.62931,7.773913 -4.396552,0.129565 -8.275862,-3.757391 -8.275862,-8.162609 0,-4.275652 3.362069,-7.773913 7.62931,-7.773913 4.396552,-0.25913 8.275862,3.498261 8.275862,8.162609 z"
             id="Path" /><path
             d="m 50.594828,60.247826 c -2.586207,0 -5.043104,-1.036522 -6.982759,-2.98 -1.939655,-1.943478 -3.103448,-4.534783 -3.103448,-7.255652 0,-5.312174 4.267241,-9.717391 9.568965,-9.717391 2.715517,0 5.301724,1.036521 7.241379,2.98 1.939656,1.943478 3.103449,4.534782 3.103449,7.255652 0,5.312174 -4.267242,9.587826 -9.568966,9.717391 z M 50.077586,44.311304 c -3.232758,0 -5.818965,2.72087 -5.818965,5.830435 0,1.554783 0.775862,3.239131 1.939655,4.405217 1.163793,1.166087 2.715517,1.813914 4.396552,1.813914 3.232758,0 5.818965,-2.591305 5.818965,-5.830435 0,-1.684348 -0.646552,-3.239131 -1.939655,-4.534783 -1.163793,-1.036522 -2.715517,-1.684348 -4.396552,-1.684348 z"
             id="Shape" /><path
             d="m 27.448276,2.8504348 c 0.258621,0.5182608 0.517241,1.1660869 0.775862,1.6843478 2.068965,4.7939131 4.267241,9.4582614 7.112069,13.7339134 1.422414,2.073043 2.974138,4.146087 5.043103,5.700869 4.396552,3.498261 9.439655,3.757391 13.965518,0.388696 1.939655,-1.425218 3.620689,-3.239131 5.172413,-5.182609 C 63.655172,14.122609 66.758621,8.4217391 70.12069,2.7208696 70.637931,1.813913 71.025862,1.0365217 71.543103,0.25913044 71.543103,0.12956522 71.672414,0.12956522 72.060345,0 71.801724,14.9 67.534483,28.245217 59.12931,40.553913 55.896552,37.833044 52.405172,36.666956 48.396552,37.055652 c -2.974138,0.388696 -5.431035,1.554783 -7.5,3.757391 -4.655173,4.793914 -4.784483,10.883479 -0.387931,18.139131 C 33.655172,65.689565 8.3103448,73.722609 0.1637931,71.649565 1.1982759,71.131304 2.1034483,70.613044 3.0086207,70.094783 8.5689655,67.114783 14,64.005217 18.784483,59.988696 c 1.810345,-1.554783 3.491379,-3.109566 5.043103,-5.053044 3.75,-4.664348 3.62069,-9.846956 0,-14.511304 -2.068965,-2.72087 -4.784483,-4.793913 -7.758621,-6.607826 C 12.448276,31.613913 8.8275862,29.670435 5.0775862,27.597391 4.5603448,27.338261 4.0431034,27.07913 3.5258621,26.431304 c 1.6810344,0.129566 3.2327586,0.259131 4.9137931,0.518261 4.6551728,0.647826 9.4396548,1.295652 14.0948278,1.943478 1.293103,0.129566 2.715517,0.259131 4.00862,0.129566 2.068966,-0.129566 2.974138,-0.906957 3.103449,-2.98 0.12931,-1.684348 0,-3.368696 -0.258621,-5.053044 C 28.612069,15.15913 27.836207,9.4582609 27.060345,3.6278261 V 2.8504348 c 0.25862,0.1295652 0.25862,0.1295652 0.387931,0 z"
             id="path1-6" /></g><g
           id="g4"
           transform="translate(0.456897,0.16577)"
           fill="#d2f2ff"><path
             d="M 44.741379,69.187826 C 44.482759,68.669565 44.224138,68.021739 43.965517,67.503478 41.896552,62.709565 39.698276,58.045217 36.853448,53.769565 35.431035,51.696522 33.87931,49.623478 31.810345,48.068696 27.413793,44.570435 22.37069,44.311304 17.844828,47.68 c -1.939656,1.425217 -3.62069,3.23913 -5.172414,5.182609 -4.1379312,5.053043 -7.2413795,10.753913 -10.6034485,16.454782 -0.5172414,0.906957 -0.9051724,1.684348 -1.42241378,2.461739 0,0.129566 -0.12931034,0.129566 -0.51724138,0.259131 0.25862069,-14.9 4.52586206,-28.245217 12.93103466,-40.553913 3.232758,2.720869 6.724138,3.886956 10.732758,3.498261 2.974138,-0.388696 5.431035,-1.554783 7.5,-3.757392 4.655173,-4.793913 4.784483,-10.883478 0.387931,-18.13913 C 38.534483,6.3486956 63.87931,-1.6843478 72.025862,0.38869565 70.991379,0.90695652 70.086207,1.4252174 69.181034,1.9434783 c -5.560344,2.98 -10.991379,6.0895652 -15.775862,10.1060867 -1.810344,1.554783 -3.491379,3.109565 -5.043103,5.053044 -3.75,4.664347 -3.62069,9.846956 0,14.511304 2.068966,2.72087 4.784483,4.793913 7.758621,6.607826 3.620689,2.202609 7.241379,4.146087 10.991379,6.219131 0.517241,0.25913 1.034483,0.51826 1.551724,1.166087 C 66.982759,45.477391 65.431034,45.347826 63.75,45.088696 59.094828,44.44087 54.310345,43.793044 49.655172,43.145217 c -1.293103,-0.129565 -2.715517,-0.25913 -4.00862,-0.129565 -2.068966,0.129565 -2.974138,0.906957 -3.103449,2.98 -0.12931,1.684348 0,3.368696 0.258621,5.053044 0.775862,5.830434 1.551724,11.531304 2.327586,17.361739 v 0.777391 z"
             id="path2-7" /><path
             d="m 29.612069,22.155652 c 0,4.275652 -3.362069,7.644348 -7.62931,7.773913 -4.396552,0.129565 -8.275862,-3.757391 -8.275862,-8.162609 0,-4.275652 3.362068,-7.773912 7.62931,-7.773912 4.525862,-0.129566 8.275862,3.627826 8.275862,8.162608 z"
             id="path3-5" /><path
             d="m 21.853448,31.873044 c -2.586207,0 -5.043103,-1.036522 -6.982758,-2.980001 -1.939655,-1.943478 -3.103449,-4.534782 -3.103449,-7.255652 0,-5.312174 4.267242,-9.717391 9.568966,-9.717391 2.715517,0 5.301724,1.036522 7.241379,2.98 1.939655,1.943478 3.103448,4.534783 3.103448,7.255652 0,5.312174 -4.267241,9.587826 -9.568965,9.717392 z M 21.465517,15.806957 c -0.12931,0 -0.12931,0 0,0 -3.232758,0 -5.818965,2.720869 -5.818965,5.830434 0,1.554783 0.775862,3.239131 1.939655,4.405218 1.163793,1.166087 2.715517,1.813913 4.396552,1.813913 3.232758,0 5.818965,-2.591305 5.818965,-5.830435 0,-1.684348 -0.646552,-3.239131 -1.939655,-4.534783 -1.293104,-1.036521 -2.844828,-1.684347 -4.396552,-1.684347 z"
             id="path4-3" /></g><path
           d="m 125.11207,115.73794 c -5.30173,0.12957 -9.56897,4.40522 -9.56897,9.7174 0,2.5913 1.1638,5.31217 3.10345,7.25565 1.93966,1.81391 4.39655,2.98 6.98276,2.98 h 0.12931 c 5.30172,-0.12957 9.56897,-4.40522 9.56897,-9.71739 0,-2.72087 -1.1638,-5.31218 -3.10345,-7.25566 -1.81035,-1.94347 -4.39655,-2.98 -7.11207,-2.98 z"
           id="path5-5"
           fill="#00a6ed" /><path
           d="m 116.06034,116.2562 c 2.06897,-2.07304 4.65518,-3.36869 7.5,-3.75739 4.00863,-0.51826 7.5,0.77739 10.73276,3.49826 8.40518,-12.30869 12.54311,-25.653909 12.93104,-40.553909 -0.38793,0.129565 -0.51724,0.25913 -0.51724,0.25913 -0.51725,0.777392 -1.03449,1.684348 -1.42242,2.461739 -3.23276,5.70087 -6.46551,11.40174 -10.60345,16.454783 -1.55172,1.813913 -3.23275,3.627826 -5.17241,5.182609 -4.52586,3.368698 -9.56896,3.109568 -13.96552,-0.388696 -2.06896,-1.554783 -3.62069,-3.627826 -5.0431,-5.70087 -2.97414,-4.275652 -5.0431,-8.94 -7.11207,-13.733913 -0.25862,-0.647826 -0.51724,-1.166086 -0.77586,-1.684347 -0.12931,0 -0.12931,0 -0.25862,0.129565 v 0.777391 c 0.77586,5.830435 1.55172,11.531305 2.32758,17.361739 0.25863,1.684348 0.38794,3.368696 0.25863,5.053049 -0.12932,2.07304 -1.03449,2.85043 -3.10345,2.98 -1.29311,0 -2.71552,0 -4.008624,-0.12957 -4.655172,-0.64783 -9.439655,-1.29565 -14.094827,-1.94348 -1.681035,-0.25913 -3.232759,-0.38869 -4.913793,-0.51826 0.517241,0.64783 1.034482,0.90696 1.551724,1.16609 3.620689,2.07304 7.370689,4.01652 10.991379,6.21913 2.974138,1.81391 5.560345,3.88695 7.758621,6.60782 3.62069,4.66435 3.75,9.97653 0,14.51131 -1.422414,1.81391 -3.232759,3.49826 -5.043104,5.05304 -4.784483,4.01652 -10.215517,7.12609 -15.775862,10.10609 -0.905172,0.51826 -1.810345,0.90695 -2.844827,1.55478 8.146551,2.07304 33.491383,-5.96 40.344823,-12.69739 -4.52586,-7.25565 -4.39655,-13.47478 0.25862,-18.2687 z M 32.137931,13.122291 c 4.396552,7.126087 4.267241,13.345218 -0.387931,18.139131 -2.068966,2.073043 -4.655172,3.368695 -7.5,3.757391 -4.008621,0.518261 -7.5,-0.777391 -10.732759,-3.498261 C 5.112069,43.829248 0.97413793,57.174465 0.5862069,72.074465 0.97413793,71.9449 1.1034483,71.815335 1.1034483,71.815335 1.6206897,71.037943 2.137931,70.130987 2.5258621,69.353596 5.7586207,63.652726 8.9913793,57.951856 13.12931,52.898813 c 1.551725,-1.813913 3.232759,-3.627826 5.172414,-5.182609 4.525862,-3.368695 9.568966,-3.109565 13.965517,0.388696 2.068966,1.554783 3.62069,3.627826 5.043104,5.700869 2.974138,4.275653 5.043103,8.940001 7.112069,13.733914 0.258621,0.647826 0.517241,1.166087 0.775862,1.684347 0.12931,0 0.12931,0 0.258621,-0.129565 V 68.317074 C 44.681035,62.486639 43.905172,56.785769 43.12931,50.955335 c -0.25862,-1.684348 -0.387931,-3.368696 -0.25862,-5.053044 0.12931,-2.073043 1.034482,-2.850435 3.103448,-2.98 1.293103,0 2.715517,0 4.008621,0.129565 4.655172,0.647827 9.439655,1.295653 14.094827,1.943479 1.681035,0.25913 3.232759,0.388695 4.913793,0.518261 -0.517241,-0.647827 -1.034482,-0.906957 -1.551724,-1.166087 -3.62069,-2.073044 -7.37069,-4.016522 -10.991379,-6.219131 -2.974138,-1.813913 -5.560345,-3.886956 -7.758621,-6.607826 -3.62069,-4.664348 -3.75,-9.976522 0,-14.511304 1.422414,-1.813913 3.232759,-3.498261 5.043104,-5.053044 C 58.517241,7.9396826 63.948276,4.8301174 69.508621,1.8501174 70.413793,1.3318565 71.318966,0.94316083 72.353448,0.29533475 64.336207,-1.6481435 38.991379,6.3849 32.137931,13.122291 Z"
           id="path6-6"
           fill="#00a6ed" /><path
           d="m 22.310345,32.038813 h 0.12931 c 5.301724,-0.129565 9.568966,-4.405217 9.568966,-9.717391 0,-2.72087 -1.163793,-5.312174 -3.103449,-7.255652 -1.939655,-1.943479 -4.525862,-2.98 -7.241379,-2.98 -5.301724,0.129565 -9.568965,4.405217 -9.568965,9.717391 0,2.591304 1.163793,5.312174 3.103448,7.255652 2.068965,1.943478 4.525862,2.98 7.112069,2.98 z"
           id="path7-2"
           fill="#00a6ed" /><g
           id="g10"
           transform="translate(0.163793,0.16577)"
           fill="#fb5607"><path
             d="m 31.844828,124.90087 c -0.129311,-5.31217 -4.396552,-9.58783 -9.698276,-9.58783 -2.586207,0 -5.301724,1.16609 -7.24138,3.10957 -1.810344,1.94348 -2.974137,4.40522 -2.974137,6.99652 v 0.12957 c 0.12931,5.31217 4.396551,9.58782 9.698275,9.58782 2.715518,0 5.301724,-1.16609 7.24138,-3.10956 1.939655,-1.81392 3.103448,-4.27566 2.974138,-7.12609 z"
             id="path8-9" /><path
             d="m 31.327586,115.8313 c 2.068966,2.07305 3.362069,4.66435 3.75,7.51479 0.517242,4.01652 -0.775862,7.51478 -3.491379,10.75391 12.284483,8.42174 25.603448,12.56783 40.474138,12.95652 -0.129311,-0.38869 -0.258621,-0.51826 -0.258621,-0.51826 -0.775862,-0.51826 -1.681034,-1.03652 -2.456896,-1.42522 -5.689656,-3.23913 -11.379311,-6.47826 -16.422414,-10.62434 -1.810345,-1.55479 -3.62069,-3.23914 -5.172414,-5.18261 -3.362069,-4.53479 -3.103448,-9.58783 0.387931,-13.99305 1.551724,-2.07304 3.62069,-3.62782 5.689655,-5.05304 4.267242,-2.98 8.922414,-5.05304 13.706897,-7.12609 0.646551,-0.25913 1.163793,-0.51826 1.681034,-0.77739 0,-0.12956 0,-0.12956 -0.12931,-0.25913 h -0.775862 c -5.818966,0.77739 -11.508621,1.55478 -17.327586,2.33217 -1.681035,0.25914 -3.362069,0.3887 -5.043104,0.25914 -2.068965,-0.12957 -2.844827,-1.03653 -2.974138,-3.10957 0,-1.29565 0,-2.720869 0.129311,-4.016521 0.646551,-4.664348 1.293103,-9.458261 1.939655,-14.122609 0.25862,-1.684348 0.387931,-3.23913 0.517241,-4.923478 -0.646552,0.518261 -0.905172,1.036521 -1.163793,1.554782 -2.068966,3.627826 -4.008621,7.385218 -6.206896,11.013044 -1.810345,2.98 -3.879311,5.571304 -6.594828,7.773913 -4.655173,3.627829 -9.956897,3.757389 -14.482759,0 C 15.293103,97.433043 13.612069,95.61913 12.060345,93.805217 8.0517241,89.011304 4.9482759,83.569565 1.9741379,77.998261 1.4568965,77.091304 1.0689655,76.184348 0.42241379,75.147826 -1.6465517,83.310435 6.3706897,108.70522 13.094828,115.57217 c 7.370689,-4.53478 13.448275,-4.40521 18.232758,0.25913 z M 134.25862,31.743478 c -7.11207,4.405218 -13.31896,4.275652 -18.10345,-0.388695 -2.06896,-2.073044 -3.36207,-4.664348 -3.75,-7.514783 -0.51724,-4.016522 0.77586,-7.514783 3.49138,-10.753913 C 103.61207,4.6643478 90.293103,0.51826087 75.422414,0.12956522 c 0.12931,0.38869565 0.25862,0.51826087 0.25862,0.51826087 0.775863,0.51826091 1.681035,1.03652171 2.456897,1.42521741 5.689655,3.2391304 11.37931,6.4782609 16.422414,10.6243475 1.810345,1.554783 3.620689,3.239131 5.172414,5.182609 3.362071,4.534783 3.103451,9.587826 -0.387931,13.993044 -1.551725,2.073043 -3.62069,3.627826 -5.689656,5.053043 -4.267241,2.98 -8.922413,5.053043 -13.706896,7.126087 -0.646552,0.25913 -1.163793,0.518261 -1.681035,0.777391 0,0.129565 0,0.129565 0.129311,0.259131 h 0.775862 C 84.991379,44.311304 90.681034,43.533913 96.5,42.756522 c 1.681034,-0.259131 3.362069,-0.388696 5.0431,-0.259131 2.06897,0.129565 2.84483,1.036522 2.97414,3.109566 0,1.295652 0,2.720869 -0.12931,4.016521 -0.64655,4.664348 -1.2931,9.458261 -1.93965,14.122609 -0.25862,1.684348 -0.38794,3.23913 -0.51725,4.923478 0.64656,-0.518261 0.90518,-1.036522 1.1638,-1.554782 2.06896,-3.627827 4.00862,-7.385218 6.20689,-11.013044 1.81035,-2.98 3.87931,-5.571304 6.59483,-7.773913 4.65517,-3.627826 9.9569,-3.757391 14.48276,0 1.81034,1.425217 3.49138,3.239131 5.0431,5.053044 4.00862,4.793913 7.11207,10.235652 10.08621,15.806956 0.51724,0.906957 0.90517,1.813913 1.55172,2.850435 C 149,64.005217 140.98276,38.610435 134.25862,31.743478 Z"
             id="path9-1" /><path
             d="m 115.37931,21.896522 v 0.129565 c 0.12931,5.312174 4.39655,9.587826 9.69828,9.587826 2.71551,0 5.30172,-1.166087 7.24138,-3.109565 1.93965,-1.943478 2.97413,-4.534783 2.97413,-7.255652 -0.12931,-5.312174 -4.39655,-9.587826 -9.69827,-9.587826 -2.58621,0 -5.30173,1.166087 -7.24138,3.109565 -1.81035,2.073043 -2.97414,4.664348 -2.97414,7.126087 z"
             id="path10-2" /></g></g></g><g
       id="g52"
       inkscape:label="black"
       style="fill:#000000"><path
         d="m 192.78988,51.38843 c 11.39493,0 19.68216,6.603305 21.88346,16.961432 h -13.72572 c -1.55386,-3.495868 -4.66157,-5.30854 -8.41672,-5.30854 -5.82696,0 -9.71159,4.531681 -9.71159,11.523416 0,7.121212 3.88463,11.652893 9.71159,11.652893 3.75515,0 6.73337,-1.942149 8.41672,-5.30854 h 13.72572 C 212.34255,91.267218 204.18481,97.870523 192.78988,97.870523 179.06415,97.741047 170,88.15978 170,74.564738 170,60.969697 179.06415,51.38843 192.78988,51.38843 Z m 40.52972,0.388429 V 87.77135 h 14.24367 v 9.710744 H 220.62978 V 51.776859 Z m 18.90524,0 h 12.68982 v 26.5427 c 0,4.790634 2.0718,7.768595 6.86286,7.768595 4.79105,0 7.12183,-2.977961 7.12183,-7.768595 v -26.5427 h 12.68982 v 26.5427 C 291.58917,91.396694 282.52501,98 271.51854,98 c -11.00647,0 -19.2937,-6.603306 -19.2937,-19.680441 z m 68.88758,45.705235 H 298.45203 V 51.776859 h 21.88346 c 9.32313,0 15.0206,4.272728 15.0206,11.911846 0,5.438017 -3.2372,9.192838 -7.76927,10.358127 5.43849,1.294766 8.80517,5.826446 8.80517,11.00551 0,7.639118 -5.43849,12.429752 -15.27957,12.429752 z m -3.49618,-35.606061 h -6.47439 v 8.027548 h 6.47439 c 3.10771,0 4.79106,-1.294766 4.79106,-3.884297 0,-2.719009 -1.68335,-4.143251 -4.79106,-4.143251 z m 0.90642,17.090909 h -7.38081 v 8.286502 h 7.38081 c 3.2372,0 4.79105,-1.294766 4.79105,-4.013775 0.12949,-2.848484 -1.68334,-4.272727 -4.79105,-4.272727 z m 23.43732,-27.190083 h 15.40906 l 11.52443,29.650138 11.26545,-29.650138 h 15.15009 V 97.482094 H 382.61919 V 72.23416 l -8.67569,25.247934 h -10.61801 l -8.6757,-25.377411 v 25.377411 h -12.68981 z m 89.73513,10.228651 h -16.57445 v 7.509642 h 14.63214 v 9.710743 h -14.63214 v 8.157025 h 16.57445 V 97.61157 H 402.43084 V 51.906336 h 29.26427 z m 6.21543,-10.228651 h 12.68981 v 45.705235 h -12.68981 z m 37.16303,46.093664 c -10.22954,0 -18.12831,-4.92011 -18.64626,-14.630854 h 13.59623 c 0.25898,3.495868 2.33079,4.531681 4.53208,4.531681 2.33078,0 4.01413,-1.165289 4.01413,-3.236915 0,-7.380165 -22.27193,-3.884297 -22.01295,-19.809917 C 456.5568,55.790634 464.0671,51 473.6492,51 c 10.48853,0 17.35139,5.179063 17.86934,14.242424 h -13.85521 c -0.12949,-2.848485 -1.94232,-4.14325 -4.14361,-4.14325 -1.94232,0 -3.36669,1.035812 -3.36669,3.236914 0,6.862259 22.01295,4.661157 22.01295,19.292011 0,8.027548 -6.21542,14.242424 -17.09241,14.242424 z m 20.4591,-46.093664 h 36.90406 V 61.876033 H 520.26486 V 97.482094 H 507.57504 V 61.876033 h -12.04237 z m 70.8299,10.228651 h -16.57446 v 7.509642 h 14.63214 v 9.710743 h -14.63214 v 8.157025 h 16.57446 V 97.61157 H 537.09829 V 51.906336 h 29.26428 z m 26.28605,-10.228651 c 11.39493,0 17.0924,6.47383 17.0924,14.630854 0,5.955923 -3.23719,11.134987 -10.10005,13.206612 L 610,97.482094 h -14.24367 l -9.06416,-16.831956 h -1.29488 V 97.482094 H 572.70748 V 51.776859 Z m -1.03591,10.61708 h -6.34491 v 9.581268 h 6.34491 c 3.49618,0 5.17952,-1.683196 5.17952,-4.790634 0,-2.848485 -1.81283,-4.790634 -5.17952,-4.790634 z"
         id="path38"
         fill="#00a6ed"
         style="fill:#000000" /><g
         id="g51"
         style="fill:#000000"><g
           id="g41"
           transform="translate(75.163793,75.313596)"
           fill="#d2f2ff"
           style="fill:#000000"><path
             d="m 58.353448,50.66 c 0,4.275652 -3.362069,7.644348 -7.62931,7.773913 -4.396552,0.129565 -8.275862,-3.757391 -8.275862,-8.162609 0,-4.275652 3.362069,-7.773913 7.62931,-7.773913 4.396552,-0.25913 8.275862,3.498261 8.275862,8.162609 z"
             id="path39"
             style="fill:#000000" /><path
             d="m 50.594828,60.247826 c -2.586207,0 -5.043104,-1.036522 -6.982759,-2.98 -1.939655,-1.943478 -3.103448,-4.534783 -3.103448,-7.255652 0,-5.312174 4.267241,-9.717391 9.568965,-9.717391 2.715517,0 5.301724,1.036521 7.241379,2.98 1.939656,1.943478 3.103449,4.534782 3.103449,7.255652 0,5.312174 -4.267242,9.587826 -9.568966,9.717391 z M 50.077586,44.311304 c -3.232758,0 -5.818965,2.72087 -5.818965,5.830435 0,1.554783 0.775862,3.239131 1.939655,4.405217 1.163793,1.166087 2.715517,1.813914 4.396552,1.813914 3.232758,0 5.818965,-2.591305 5.818965,-5.830435 0,-1.684348 -0.646552,-3.239131 -1.939655,-4.534783 -1.163793,-1.036522 -2.715517,-1.684348 -4.396552,-1.684348 z"
             id="path40"
             style="fill:#000000" /><path
             d="m 27.448276,2.8504348 c 0.258621,0.5182608 0.517241,1.1660869 0.775862,1.6843478 2.068965,4.7939131 4.267241,9.4582614 7.112069,13.7339134 1.422414,2.073043 2.974138,4.146087 5.043103,5.700869 4.396552,3.498261 9.439655,3.757391 13.965518,0.388696 1.939655,-1.425218 3.620689,-3.239131 5.172413,-5.182609 C 63.655172,14.122609 66.758621,8.4217391 70.12069,2.7208696 70.637931,1.813913 71.025862,1.0365217 71.543103,0.25913044 71.543103,0.12956522 71.672414,0.12956522 72.060345,0 71.801724,14.9 67.534483,28.245217 59.12931,40.553913 55.896552,37.833044 52.405172,36.666956 48.396552,37.055652 c -2.974138,0.388696 -5.431035,1.554783 -7.5,3.757391 -4.655173,4.793914 -4.784483,10.883479 -0.387931,18.139131 C 33.655172,65.689565 8.3103448,73.722609 0.1637931,71.649565 1.1982759,71.131304 2.1034483,70.613044 3.0086207,70.094783 8.5689655,67.114783 14,64.005217 18.784483,59.988696 c 1.810345,-1.554783 3.491379,-3.109566 5.043103,-5.053044 3.75,-4.664348 3.62069,-9.846956 0,-14.511304 -2.068965,-2.72087 -4.784483,-4.793913 -7.758621,-6.607826 C 12.448276,31.613913 8.8275862,29.670435 5.0775862,27.597391 4.5603448,27.338261 4.0431034,27.07913 3.5258621,26.431304 c 1.6810344,0.129566 3.2327586,0.259131 4.9137931,0.518261 4.6551728,0.647826 9.4396548,1.295652 14.0948278,1.943478 1.293103,0.129566 2.715517,0.259131 4.00862,0.129566 2.068966,-0.129566 2.974138,-0.906957 3.103449,-2.98 0.12931,-1.684348 0,-3.368696 -0.258621,-5.053044 C 28.612069,15.15913 27.836207,9.4582609 27.060345,3.6278261 V 2.8504348 c 0.25862,0.1295652 0.25862,0.1295652 0.387931,0 z"
             id="path41"
             style="fill:#000000" /></g><g
           id="g44"
           transform="translate(0.456897,0.16577)"
           fill="#d2f2ff"
           style="fill:#000000"><path
             d="M 44.741379,69.187826 C 44.482759,68.669565 44.224138,68.021739 43.965517,67.503478 41.896552,62.709565 39.698276,58.045217 36.853448,53.769565 35.431035,51.696522 33.87931,49.623478 31.810345,48.068696 27.413793,44.570435 22.37069,44.311304 17.844828,47.68 c -1.939656,1.425217 -3.62069,3.23913 -5.172414,5.182609 -4.1379312,5.053043 -7.2413795,10.753913 -10.6034485,16.454782 -0.5172414,0.906957 -0.9051724,1.684348 -1.42241378,2.461739 0,0.129566 -0.12931034,0.129566 -0.51724138,0.259131 0.25862069,-14.9 4.52586206,-28.245217 12.93103466,-40.553913 3.232758,2.720869 6.724138,3.886956 10.732758,3.498261 2.974138,-0.388696 5.431035,-1.554783 7.5,-3.757392 4.655173,-4.793913 4.784483,-10.883478 0.387931,-18.13913 C 38.534483,6.3486956 63.87931,-1.6843478 72.025862,0.38869565 70.991379,0.90695652 70.086207,1.4252174 69.181034,1.9434783 c -5.560344,2.98 -10.991379,6.0895652 -15.775862,10.1060867 -1.810344,1.554783 -3.491379,3.109565 -5.043103,5.053044 -3.75,4.664347 -3.62069,9.846956 0,14.511304 2.068966,2.72087 4.784483,4.793913 7.758621,6.607826 3.620689,2.202609 7.241379,4.146087 10.991379,6.219131 0.517241,0.25913 1.034483,0.51826 1.551724,1.166087 C 66.982759,45.477391 65.431034,45.347826 63.75,45.088696 59.094828,44.44087 54.310345,43.793044 49.655172,43.145217 c -1.293103,-0.129565 -2.715517,-0.25913 -4.00862,-0.129565 -2.068966,0.129565 -2.974138,0.906957 -3.103449,2.98 -0.12931,1.684348 0,3.368696 0.258621,5.053044 0.775862,5.830434 1.551724,11.531304 2.327586,17.361739 v 0.777391 z"
             id="path42"
             style="fill:#000000" /><path
             d="m 29.612069,22.155652 c 0,4.275652 -3.362069,7.644348 -7.62931,7.773913 -4.396552,0.129565 -8.275862,-3.757391 -8.275862,-8.162609 0,-4.275652 3.362068,-7.773912 7.62931,-7.773912 4.525862,-0.129566 8.275862,3.627826 8.275862,8.162608 z"
             id="path43"
             style="fill:#000000" /><path
             d="m 21.853448,31.873044 c -2.586207,0 -5.043103,-1.036522 -6.982758,-2.980001 -1.939655,-1.943478 -3.103449,-4.534782 -3.103449,-7.255652 0,-5.312174 4.267242,-9.717391 9.568966,-9.717391 2.715517,0 5.301724,1.036522 7.241379,2.98 1.939655,1.943478 3.103448,4.534783 3.103448,7.255652 0,5.312174 -4.267241,9.587826 -9.568965,9.717392 z M 21.465517,15.806957 c -0.12931,0 -0.12931,0 0,0 -3.232758,0 -5.818965,2.720869 -5.818965,5.830434 0,1.554783 0.775862,3.239131 1.939655,4.405218 1.163793,1.166087 2.715517,1.813913 4.396552,1.813913 3.232758,0 5.818965,-2.591305 5.818965,-5.830435 0,-1.684348 -0.646552,-3.239131 -1.939655,-4.534783 -1.293104,-1.036521 -2.844828,-1.684347 -4.396552,-1.684347 z"
             id="path44"
             style="fill:#000000" /></g><path
           d="m 125.11207,115.73794 c -5.30173,0.12957 -9.56897,4.40522 -9.56897,9.7174 0,2.5913 1.1638,5.31217 3.10345,7.25565 1.93966,1.81391 4.39655,2.98 6.98276,2.98 h 0.12931 c 5.30172,-0.12957 9.56897,-4.40522 9.56897,-9.71739 0,-2.72087 -1.1638,-5.31218 -3.10345,-7.25566 -1.81035,-1.94347 -4.39655,-2.98 -7.11207,-2.98 z"
           id="path45"
           fill="#00a6ed"
           style="fill:#000000" /><path
           d="m 116.06034,116.2562 c 2.06897,-2.07304 4.65518,-3.36869 7.5,-3.75739 4.00863,-0.51826 7.5,0.77739 10.73276,3.49826 8.40518,-12.30869 12.54311,-25.653909 12.93104,-40.553909 -0.38793,0.129565 -0.51724,0.25913 -0.51724,0.25913 -0.51725,0.777392 -1.03449,1.684348 -1.42242,2.461739 -3.23276,5.70087 -6.46551,11.40174 -10.60345,16.454783 -1.55172,1.813913 -3.23275,3.627826 -5.17241,5.182609 -4.52586,3.368698 -9.56896,3.109568 -13.96552,-0.388696 -2.06896,-1.554783 -3.62069,-3.627826 -5.0431,-5.70087 -2.97414,-4.275652 -5.0431,-8.94 -7.11207,-13.733913 -0.25862,-0.647826 -0.51724,-1.166086 -0.77586,-1.684347 -0.12931,0 -0.12931,0 -0.25862,0.129565 v 0.777391 c 0.77586,5.830435 1.55172,11.531305 2.32758,17.361739 0.25863,1.684348 0.38794,3.368696 0.25863,5.053049 -0.12932,2.07304 -1.03449,2.85043 -3.10345,2.98 -1.29311,0 -2.71552,0 -4.008624,-0.12957 -4.655172,-0.64783 -9.439655,-1.29565 -14.094827,-1.94348 -1.681035,-0.25913 -3.232759,-0.38869 -4.913793,-0.51826 0.517241,0.64783 1.034482,0.90696 1.551724,1.16609 3.620689,2.07304 7.370689,4.01652 10.991379,6.21913 2.974138,1.81391 5.560345,3.88695 7.758621,6.60782 3.62069,4.66435 3.75,9.97653 0,14.51131 -1.422414,1.81391 -3.232759,3.49826 -5.043104,5.05304 -4.784483,4.01652 -10.215517,7.12609 -15.775862,10.10609 -0.905172,0.51826 -1.810345,0.90695 -2.844827,1.55478 8.146551,2.07304 33.491383,-5.96 40.344823,-12.69739 -4.52586,-7.25565 -4.39655,-13.47478 0.25862,-18.2687 z M 32.137931,13.122291 c 4.396552,7.126087 4.267241,13.345218 -0.387931,18.139131 -2.068966,2.073043 -4.655172,3.368695 -7.5,3.757391 -4.008621,0.518261 -7.5,-0.777391 -10.732759,-3.498261 C 5.112069,43.829248 0.97413793,57.174465 0.5862069,72.074465 0.97413793,71.9449 1.1034483,71.815335 1.1034483,71.815335 1.6206897,71.037943 2.137931,70.130987 2.5258621,69.353596 5.7586207,63.652726 8.9913793,57.951856 13.12931,52.898813 c 1.551725,-1.813913 3.232759,-3.627826 5.172414,-5.182609 4.525862,-3.368695 9.568966,-3.109565 13.965517,0.388696 2.068966,1.554783 3.62069,3.627826 5.043104,5.700869 2.974138,4.275653 5.043103,8.940001 7.112069,13.733914 0.258621,0.647826 0.517241,1.166087 0.775862,1.684347 0.12931,0 0.12931,0 0.258621,-0.129565 V 68.317074 C 44.681035,62.486639 43.905172,56.785769 43.12931,50.955335 c -0.25862,-1.684348 -0.387931,-3.368696 -0.25862,-5.053044 0.12931,-2.073043 1.034482,-2.850435 3.103448,-2.98 1.293103,0 2.715517,0 4.008621,0.129565 4.655172,0.647827 9.439655,1.295653 14.094827,1.943479 1.681035,0.25913 3.232759,0.388695 4.913793,0.518261 -0.517241,-0.647827 -1.034482,-0.906957 -1.551724,-1.166087 -3.62069,-2.073044 -7.37069,-4.016522 -10.991379,-6.219131 -2.974138,-1.813913 -5.560345,-3.886956 -7.758621,-6.607826 -3.62069,-4.664348 -3.75,-9.976522 0,-14.511304 1.422414,-1.813913 3.232759,-3.498261 5.043104,-5.053044 C 58.517241,7.9396826 63.948276,4.8301174 69.508621,1.8501174 70.413793,1.3318565 71.318966,0.94316083 72.353448,0.29533475 64.336207,-1.6481435 38.991379,6.3849 32.137931,13.122291 Z"
           id="path46"
           fill="#00a6ed"
           style="fill:#000000" /><path
           d="m 22.310345,32.038813 h 0.12931 c 5.301724,-0.129565 9.568966,-4.405217 9.568966,-9.717391 0,-2.72087 -1.163793,-5.312174 -3.103449,-7.255652 -1.939655,-1.943479 -4.525862,-2.98 -7.241379,-2.98 -5.301724,0.129565 -9.568965,4.405217 -9.568965,9.717391 0,2.591304 1.163793,5.312174 3.103448,7.255652 2.068965,1.943478 4.525862,2.98 7.112069,2.98 z"
           id="path47"
           fill="#00a6ed"
           style="fill:#000000" /><g
           id="g50"
           transform="translate(0.163793,0.16577)"
           fill="#fb5607"
           style="fill:#000000"><path
             d="m 31.844828,124.90087 c -0.129311,-5.31217 -4.396552,-9.58783 -9.698276,-9.58783 -2.586207,0 -5.301724,1.16609 -7.24138,3.10957 -1.810344,1.94348 -2.974137,4.40522 -2.974137,6.99652 v 0.12957 c 0.12931,5.31217 4.396551,9.58782 9.698275,9.58782 2.715518,0 5.301724,-1.16609 7.24138,-3.10956 1.939655,-1.81392 3.103448,-4.27566 2.974138,-7.12609 z"
             id="path48"
             style="fill:#000000" /><path
             d="m 31.327586,115.8313 c 2.068966,2.07305 3.362069,4.66435 3.75,7.51479 0.517242,4.01652 -0.775862,7.51478 -3.491379,10.75391 12.284483,8.42174 25.603448,12.56783 40.474138,12.95652 -0.129311,-0.38869 -0.258621,-0.51826 -0.258621,-0.51826 -0.775862,-0.51826 -1.681034,-1.03652 -2.456896,-1.42522 -5.689656,-3.23913 -11.379311,-6.47826 -16.422414,-10.62434 -1.810345,-1.55479 -3.62069,-3.23914 -5.172414,-5.18261 -3.362069,-4.53479 -3.103448,-9.58783 0.387931,-13.99305 1.551724,-2.07304 3.62069,-3.62782 5.689655,-5.05304 4.267242,-2.98 8.922414,-5.05304 13.706897,-7.12609 0.646551,-0.25913 1.163793,-0.51826 1.681034,-0.77739 0,-0.12956 0,-0.12956 -0.12931,-0.25913 h -0.775862 c -5.818966,0.77739 -11.508621,1.55478 -17.327586,2.33217 -1.681035,0.25914 -3.362069,0.3887 -5.043104,0.25914 -2.068965,-0.12957 -2.844827,-1.03653 -2.974138,-3.10957 0,-1.29565 0,-2.720869 0.129311,-4.016521 0.646551,-4.664348 1.293103,-9.458261 1.939655,-14.122609 0.25862,-1.684348 0.387931,-3.23913 0.517241,-4.923478 -0.646552,0.518261 -0.905172,1.036521 -1.163793,1.554782 -2.068966,3.627826 -4.008621,7.385218 -6.206896,11.013044 -1.810345,2.98 -3.879311,5.571304 -6.594828,7.773913 -4.655173,3.627829 -9.956897,3.757389 -14.482759,0 C 15.293103,97.433043 13.612069,95.61913 12.060345,93.805217 8.0517241,89.011304 4.9482759,83.569565 1.9741379,77.998261 1.4568965,77.091304 1.0689655,76.184348 0.42241379,75.147826 -1.6465517,83.310435 6.3706897,108.70522 13.094828,115.57217 c 7.370689,-4.53478 13.448275,-4.40521 18.232758,0.25913 z M 134.25862,31.743478 c -7.11207,4.405218 -13.31896,4.275652 -18.10345,-0.388695 -2.06896,-2.073044 -3.36207,-4.664348 -3.75,-7.514783 -0.51724,-4.016522 0.77586,-7.514783 3.49138,-10.753913 C 103.61207,4.6643478 90.293103,0.51826087 75.422414,0.12956522 c 0.12931,0.38869565 0.25862,0.51826087 0.25862,0.51826087 0.775863,0.51826091 1.681035,1.03652171 2.456897,1.42521741 5.689655,3.2391304 11.37931,6.4782609 16.422414,10.6243475 1.810345,1.554783 3.620689,3.239131 5.172414,5.182609 3.362071,4.534783 3.103451,9.587826 -0.387931,13.993044 -1.551725,2.073043 -3.62069,3.627826 -5.689656,5.053043 -4.267241,2.98 -8.922413,5.053043 -13.706896,7.126087 -0.646552,0.25913 -1.163793,0.518261 -1.681035,0.777391 0,0.129565 0,0.129565 0.129311,0.259131 h 0.775862 C 84.991379,44.311304 90.681034,43.533913 96.5,42.756522 c 1.681034,-0.259131 3.362069,-0.388696 5.0431,-0.259131 2.06897,0.129565 2.84483,1.036522 2.97414,3.109566 0,1.295652 0,2.720869 -0.12931,4.016521 -0.64655,4.664348 -1.2931,9.458261 -1.93965,14.122609 -0.25862,1.684348 -0.38794,3.23913 -0.51725,4.923478 0.64656,-0.518261 0.90518,-1.036522 1.1638,-1.554782 2.06896,-3.627827 4.00862,-7.385218 6.20689,-11.013044 1.81035,-2.98 3.87931,-5.571304 6.59483,-7.773913 4.65517,-3.627826 9.9569,-3.757391 14.48276,0 1.81034,1.425217 3.49138,3.239131 5.0431,5.053044 4.00862,4.793913 7.11207,10.235652 10.08621,15.806956 0.51724,0.906957 0.90517,1.813913 1.55172,2.850435 C 149,64.005217 140.98276,38.610435 134.25862,31.743478 Z"
             id="path49"
             style="fill:#000000" /><path
             d="m 115.37931,21.896522 v 0.129565 c 0.12931,5.312174 4.39655,9.587826 9.69828,9.587826 2.71551,0 5.30172,-1.166087 7.24138,-3.109565 1.93965,-1.943478 2.97413,-4.534783 2.97413,-7.255652 -0.12931,-5.312174 -4.39655,-9.587826 -9.69827,-9.587826 -2.58621,0 -5.30173,1.166087 -7.24138,3.109565 -1.81035,2.073043 -2.97414,4.664348 -2.97414,7.126087 z"
             id="path50"
             style="fill:#000000" /></g></g></g></g></svg>
