<?xml version="1.0" encoding="UTF-8" standalone="no"?>
<!DOCTYPE svg PUBLIC "-//W3C//DTD SVG 1.1//EN" "http://www.w3.org/Graphics/SVG/1.1/DTD/svg11.dtd">
<svg width="100%" height="100%" viewBox="0 0 1233 621" version="1.1" xmlns="http://www.w3.org/2000/svg" xmlns:xlink="http://www.w3.org/1999/xlink" xml:space="preserve" xmlns:serif="http://www.serif.com/" style="fill-rule:evenodd;clip-rule:evenodd;stroke-linejoin:round;stroke-miterlimit:2;">
    <g transform="matrix(1,0,0,1,-591.825,-355.873)">
        <g id="_1-im" serif:id="1 im" transform="matrix(1,0,0,1,1.12721,142.028)">
            <g transform="matrix(4.17999,0,0,1.5,-1348.65,-1258.8)">
                <rect x="463.96" y="981.764" width="13.876" height="193.333" style="fill:rgb(30,33,43);fill-rule:nonzero;"/>
                <path d="M487.023,1175.1L484.535,1139.1L499.463,1139.1C500.547,1139.1 501.09,1137.76 501.09,1135.1L501.09,1099.9C501.09,1097.23 500.898,1095.63 500.516,1095.1C500.133,1094.56 499.463,1094.3 498.506,1094.3L491.329,1094.3C490.308,1094.3 489.335,1094.08 488.41,1093.63C487.485,1093.19 486.656,1092.16 485.922,1090.56C485.189,1088.96 484.614,1086.74 484.2,1083.9C483.785,1081.05 483.578,1077.23 483.578,1072.43L483.578,1006.83C483.578,999.186 484.327,993.097 485.827,988.564C487.326,984.03 489.702,981.764 492.956,981.764L512.095,981.764L514.487,1017.76L498.793,1017.76C497.645,1017.76 497.071,1019.19 497.071,1022.03L497.071,1057.23C497.071,1059.19 497.246,1060.52 497.597,1061.23C497.948,1061.94 498.474,1062.3 499.176,1062.3L507.884,1062.3C510.117,1062.3 511.823,1063.76 513.004,1066.7C514.184,1069.63 514.774,1074.74 514.774,1082.03L514.774,1145.76C514.774,1156.43 513.992,1163.99 512.429,1168.43C510.866,1172.88 508.107,1175.1 504.152,1175.1L487.023,1175.1Z" style="fill:rgb(30,33,43);fill-rule:nonzero;"/>
                <path d="M520.516,981.764L547.501,981.764L549.894,1017.76L534.774,1017.76L534.774,1063.63L546.257,1063.63L546.257,1096.96L534.774,1096.96L534.774,1139.1L549.319,1139.1L546.927,1175.1L520.516,1175.1L520.516,981.764Z" style="fill:rgb(30,33,43);fill-rule:nonzero;"/>
                <path d="M567.406,1151.1L566.162,1175.1L552.19,1175.1L564.726,981.764L579.559,981.764L592.095,1175.1L578.123,1175.1L576.879,1151.1L567.406,1151.1ZM568.937,1120.43L575.348,1120.43L572.19,1051.9L568.937,1120.43Z" style="fill:rgb(30,33,43);fill-rule:nonzero;"/>
                <path d="M609.798,1015.63L609.798,1082.3L616.592,1082.3C617.485,1082.3 617.932,1080.96 617.932,1078.3L617.932,1019.63C617.932,1016.96 617.485,1015.63 616.592,1015.63L609.798,1015.63ZM631.616,1096.43C631.616,1100.7 631.09,1104.61 630.037,1108.16C628.985,1111.72 627.438,1113.5 625.396,1113.5L632.669,1175.1L618.315,1175.1L611.616,1113.5L609.798,1113.5L609.798,1175.1L595.922,1175.1L595.922,981.764L622.238,981.764C625.492,981.764 627.868,984.03 629.367,988.564C630.867,993.097 631.616,999.186 631.616,1006.83L631.616,1096.43Z" style="fill:rgb(30,33,43);fill-rule:nonzero;"/>
                <path d="M651.329,1015.63L651.329,1141.23L657.836,1141.23C658.411,1141.23 658.777,1140.92 658.937,1140.3C659.096,1139.67 659.176,1138.65 659.176,1137.23L659.176,1019.36C659.176,1016.88 658.761,1015.63 657.932,1015.63L651.329,1015.63ZM672.956,1145.23C672.956,1155.9 672.159,1163.54 670.564,1168.16C668.969,1172.79 666.162,1175.1 662.143,1175.1L637.549,1175.1L637.549,981.764L664.726,981.764C667.47,981.764 669.527,983.897 670.899,988.164C672.27,992.43 672.956,998.119 672.956,1005.23L672.956,1145.23Z" style="fill:rgb(30,33,43);fill-rule:nonzero;"/>
            </g>
            <g id="media---shape" serif:id="media - shape" transform="matrix(1.21932,0,0,1,483.328,-767.918)">
                <path d="M517.186,1465.89L517.186,1602.69L470.931,1602.69L470.931,1312.69L521.123,1312.69L547.039,1435.1L572.955,1312.69L623.475,1312.69L623.475,1602.69L577.219,1602.69L577.219,1465.89L547.039,1581.89L517.186,1465.89Z" style="fill:rgb(30,33,43);fill-rule:nonzero;"/>
                <path d="M643.158,1312.69L735.668,1312.69L743.869,1366.69L692.037,1366.69L692.037,1435.5L731.403,1435.5L731.403,1485.5L692.037,1485.5L692.037,1548.69L741.901,1548.69L733.7,1602.69L643.158,1602.69L643.158,1312.69Z" style="fill:rgb(30,33,43);fill-rule:nonzero;"/>
                <path d="M807.511,1363.5L807.511,1551.89L829.818,1551.89C831.787,1551.89 833.044,1551.43 833.591,1550.5C834.138,1549.56 834.411,1548.03 834.411,1545.89L834.411,1369.1C834.411,1365.36 832.989,1363.5 830.146,1363.5L807.511,1363.5ZM881.65,1557.89C881.65,1573.89 878.916,1585.36 873.449,1592.3C867.981,1599.23 858.359,1602.69 844.581,1602.69L760.272,1602.69L760.272,1312.69L853.438,1312.69C862.842,1312.69 869.895,1315.89 874.597,1322.3C879.299,1328.69 881.65,1337.23 881.65,1347.89L881.65,1557.89Z" style="fill:rgb(30,33,43);fill-rule:nonzero;"/>
                <rect x="901.333" y="1312.69" width="47.567" height="290" style="fill:rgb(30,33,43);fill-rule:nonzero;"/>
                <path d="M1014.18,1566.69L1009.92,1602.69L962.023,1602.69L1005,1312.69L1055.85,1312.69L1098.82,1602.69L1050.92,1602.69L1046.66,1566.69L1014.18,1566.69ZM1019.43,1520.69L1041.41,1520.69L1030.59,1417.89L1019.43,1520.69Z" style="fill:rgb(30,33,43);fill-rule:nonzero;"/>
            </g>
            <g transform="matrix(0.570513,0,0,0.609589,363.627,-44.5252)">
                <ellipse cx="2187.01" cy="732.686" rx="175.845" ry="164.572" style="fill:rgb(255,149,0);"/>
            </g>
        </g>
    </g>
</svg>
