<?xml version="1.0" encoding="UTF-8" standalone="no"?>
<!DOCTYPE svg PUBLIC "-//W3C//DTD SVG 1.1//EN" "http://www.w3.org/Graphics/SVG/1.1/DTD/svg11.dtd">
<svg width="100%" height="100%" viewBox="0 0 1228 621" version="1.1" xmlns="http://www.w3.org/2000/svg" xmlns:xlink="http://www.w3.org/1999/xlink" xml:space="preserve" xmlns:serif="http://www.serif.com/" style="fill-rule:evenodd;clip-rule:evenodd;stroke-linejoin:round;stroke-miterlimit:1.5;">
    <g transform="matrix(1,0,0,1,-596.698,-213.845)">
        <g>
            <g transform="matrix(1,0,0,1,123.608,-767.918)">
                <g transform="matrix(400,0,0,400,461.09,1271.76)">
                    <path d="M0.143,-0C0.101,-0 0.072,-0.009 0.055,-0.026C0.038,-0.043 0.03,-0.072 0.03,-0.112L0.03,-0.636C0.03,-0.665 0.038,-0.687 0.055,-0.702C0.071,-0.717 0.091,-0.725 0.115,-0.725L0.306,-0.725L0.331,-0.59L0.192,-0.59C0.183,-0.59 0.179,-0.585 0.179,-0.576L0.179,-0.149C0.179,-0.14 0.183,-0.135 0.192,-0.135L0.331,-0.135L0.305,-0L0.143,-0Z" style="fill:rgb(30,33,43);fill-rule:nonzero;"/>
                </g>
                <g transform="matrix(400,0,0,400,601.49,1271.76)">
                    <path d="M0.143,-0C0.101,-0 0.072,-0.009 0.055,-0.026C0.038,-0.043 0.03,-0.072 0.03,-0.112L0.03,-0.725L0.178,-0.725L0.178,-0.143C0.178,-0.138 0.179,-0.134 0.181,-0.131C0.182,-0.128 0.186,-0.127 0.192,-0.127L0.243,-0.127C0.249,-0.127 0.253,-0.128 0.255,-0.131C0.256,-0.134 0.257,-0.138 0.257,-0.143L0.257,-0.725L0.405,-0.725L0.405,-0.112C0.405,-0.072 0.397,-0.043 0.38,-0.026C0.363,-0.009 0.334,-0 0.292,-0L0.143,-0Z" style="fill:rgb(30,33,43);fill-rule:nonzero;"/>
                </g>
                <g transform="matrix(400,0,0,400,775.49,1271.76)">
                    <path d="M0.03,-0.725L0.179,-0.725L0.179,-0.135L0.325,-0.135L0.3,-0L0.03,-0L0.03,-0.725Z" style="fill:rgb(30,33,43);fill-rule:nonzero;"/>
                </g>
                <g transform="matrix(400,0,0,400,885.49,1271.76)">
                    <path d="M0.316,-0.725L0.352,-0.59L0.255,-0.59L0.255,-0L0.107,-0L0.107,-0.59L0.01,-0.59L0.048,-0.725L0.316,-0.725Z" style="fill:rgb(30,33,43);fill-rule:nonzero;"/>
                </g>
                <g transform="matrix(400,0,0,400,1030.29,1271.76)">
                    <path d="M0.143,-0C0.101,-0 0.072,-0.009 0.055,-0.026C0.038,-0.043 0.03,-0.072 0.03,-0.112L0.03,-0.725L0.178,-0.725L0.178,-0.143C0.178,-0.138 0.179,-0.134 0.181,-0.131C0.182,-0.128 0.186,-0.127 0.192,-0.127L0.243,-0.127C0.249,-0.127 0.253,-0.128 0.255,-0.131C0.256,-0.134 0.257,-0.138 0.257,-0.143L0.257,-0.725L0.405,-0.725L0.405,-0.112C0.405,-0.072 0.397,-0.043 0.38,-0.026C0.363,-0.009 0.334,-0 0.292,-0L0.143,-0Z" style="fill:rgb(30,33,43);fill-rule:nonzero;"/>
                </g>
                <g transform="matrix(400,0,0,400,1204.29,1271.76)">
                    <path d="M0.175,-0.598L0.175,-0.348L0.246,-0.348C0.255,-0.348 0.26,-0.353 0.26,-0.363L0.26,-0.583C0.26,-0.593 0.255,-0.598 0.246,-0.598L0.175,-0.598ZM0.403,-0.295C0.403,-0.279 0.398,-0.264 0.387,-0.251C0.376,-0.238 0.359,-0.231 0.338,-0.231L0.414,-0L0.264,-0L0.194,-0.231L0.175,-0.231L0.175,-0L0.03,-0L0.03,-0.725L0.305,-0.725C0.339,-0.725 0.364,-0.717 0.38,-0.7C0.395,-0.683 0.403,-0.66 0.403,-0.631L0.403,-0.295Z" style="fill:rgb(30,33,43);fill-rule:nonzero;"/>
                </g>
                <g transform="matrix(400,0,0,400,1375.49,1271.76)">
                    <path d="M0.169,-0.09L0.156,-0L0.01,-0L0.141,-0.725L0.296,-0.725L0.427,-0L0.281,-0L0.268,-0.09L0.169,-0.09ZM0.185,-0.205L0.252,-0.205L0.219,-0.462L0.185,-0.205Z" style="fill:rgb(30,33,43);fill-rule:nonzero;"/>
                </g>
                <g transform="matrix(400,0,0,400,1550.29,1271.76)">
                    <path d="M0.03,-0.725L0.179,-0.725L0.179,-0.135L0.325,-0.135L0.3,-0L0.03,-0L0.03,-0.725Z" style="fill:rgb(30,33,43);fill-rule:nonzero;"/>
                </g>
            </g>
            <g transform="matrix(1,0,0,1,123.608,-767.918)">
                <g transform="matrix(400,0,0,400,461.09,1602.7)">
                    <path d="M0.174,-0.598L0.174,-0.127L0.242,-0.127C0.248,-0.127 0.252,-0.128 0.254,-0.131C0.255,-0.133 0.256,-0.137 0.256,-0.142L0.256,-0.584C0.256,-0.593 0.252,-0.598 0.243,-0.598L0.174,-0.598ZM0.4,-0.112C0.4,-0.072 0.392,-0.043 0.375,-0.026C0.358,-0.009 0.329,-0 0.287,-0L0.03,-0L0.03,-0.725L0.314,-0.725C0.343,-0.725 0.364,-0.717 0.379,-0.701C0.393,-0.685 0.4,-0.664 0.4,-0.637L0.4,-0.112Z" style="fill:rgb(30,33,43);fill-rule:nonzero;"/>
                </g>
                <g transform="matrix(400,0,0,400,633.09,1602.7)">
                    <path d="M0.175,-0.598L0.175,-0.348L0.246,-0.348C0.255,-0.348 0.26,-0.353 0.26,-0.363L0.26,-0.583C0.26,-0.593 0.255,-0.598 0.246,-0.598L0.175,-0.598ZM0.403,-0.295C0.403,-0.279 0.398,-0.264 0.387,-0.251C0.376,-0.238 0.359,-0.231 0.338,-0.231L0.414,-0L0.264,-0L0.194,-0.231L0.175,-0.231L0.175,-0L0.03,-0L0.03,-0.725L0.305,-0.725C0.339,-0.725 0.364,-0.717 0.38,-0.7C0.395,-0.683 0.403,-0.66 0.403,-0.631L0.403,-0.295Z" style="fill:rgb(30,33,43);fill-rule:nonzero;"/>
                </g>
                <g transform="matrix(400,0,0,400,807.09,1602.7)">
                    <rect x="0.03" y="-0.725" width="0.145" height="0.725" style="fill:rgb(30,33,43);fill-rule:nonzero;"/>
                </g>
                <g transform="matrix(400,0,0,400,889.09,1602.7)">
                    <path d="M0.03,-0.725L0.312,-0.725L0.337,-0.59L0.179,-0.59L0.179,-0.418L0.299,-0.418L0.299,-0.293L0.179,-0.293L0.179,-0L0.03,-0L0.03,-0.725Z" style="fill:rgb(30,33,43);fill-rule:nonzero;"/>
                </g>
                <g transform="matrix(400,0,0,400,1031.89,1602.7)">
                    <path d="M0.316,-0.725L0.352,-0.59L0.255,-0.59L0.255,-0L0.107,-0L0.107,-0.59L0.01,-0.59L0.048,-0.725L0.316,-0.725Z" style="fill:rgb(30,33,43);fill-rule:nonzero;"/>
                </g>
            </g>
            <g transform="matrix(1.05289,0,0,1,58.0127,-803.918)">
                <path d="M1240.16,1384.4L1657.96,1384.4" style="fill:rgb(94,0,255);stroke:rgb(57,158,90);stroke-width:40.58px;"/>
            </g>
        </g>
    </g>
</svg>
